<mxfile host="Electron" modified="2024-01-10T07:39:50.053Z" agent="Mozilla/5.0 (Windows NT 10.0; Win64; x64) AppleWebKit/537.36 (KHTML, like Gecko) draw.io/22.1.16 Chrome/120.0.6099.109 Electron/28.1.0 Safari/537.36" etag="wBYe076YUt7nDzkzEjGP" version="22.1.16" type="device">
  <diagram name="Page-1" id="8mtDIU5gfdfmDQiLnDFa">
    <mxGraphModel dx="2300" dy="899" grid="0" gridSize="10" guides="1" tooltips="1" connect="1" arrows="1" fold="1" page="0" pageScale="1" pageWidth="850" pageHeight="1100" background="none" math="0" shadow="0">
      <root>
        <mxCell id="0" />
        <mxCell id="1" parent="0" />
        <mxCell id="qdoZ0_azvyJZ9i20PAHD-66" value="1" style="rounded=0;orthogonalLoop=1;jettySize=auto;html=1;endArrow=none;endFill=0;" parent="1" source="qdoZ0_azvyJZ9i20PAHD-13" target="qdoZ0_azvyJZ9i20PAHD-65" edge="1">
          <mxGeometry relative="1" as="geometry" />
        </mxCell>
        <mxCell id="qdoZ0_azvyJZ9i20PAHD-13" value="Department" style="whiteSpace=wrap;html=1;align=center;" parent="1" vertex="1">
          <mxGeometry x="840" y="160" width="100" height="40" as="geometry" />
        </mxCell>
        <mxCell id="qdoZ0_azvyJZ9i20PAHD-14" value="Intake" style="whiteSpace=wrap;html=1;align=center;" parent="1" vertex="1">
          <mxGeometry x="607" y="290" width="100" height="40" as="geometry" />
        </mxCell>
        <mxCell id="qdoZ0_azvyJZ9i20PAHD-15" value="Exam" style="whiteSpace=wrap;html=1;align=center;" parent="1" vertex="1">
          <mxGeometry x="353" y="763" width="100" height="40" as="geometry" />
        </mxCell>
        <mxCell id="qdoZ0_azvyJZ9i20PAHD-69" value="M" style="rounded=0;orthogonalLoop=1;jettySize=auto;html=1;endArrow=none;endFill=0;shape=link;" parent="1" source="qdoZ0_azvyJZ9i20PAHD-16" target="qdoZ0_azvyJZ9i20PAHD-68" edge="1">
          <mxGeometry relative="1" as="geometry" />
        </mxCell>
        <mxCell id="qdoZ0_azvyJZ9i20PAHD-16" value="Track" style="whiteSpace=wrap;html=1;align=center;" parent="1" vertex="1">
          <mxGeometry x="90" y="160" width="100" height="40" as="geometry" />
        </mxCell>
        <mxCell id="qdoZ0_azvyJZ9i20PAHD-109" value="1" style="rounded=0;orthogonalLoop=1;jettySize=auto;html=1;exitX=1;exitY=1;exitDx=0;exitDy=0;endArrow=none;endFill=0;shape=link;" parent="1" source="qdoZ0_azvyJZ9i20PAHD-18" target="qdoZ0_azvyJZ9i20PAHD-107" edge="1">
          <mxGeometry relative="1" as="geometry" />
        </mxCell>
        <mxCell id="qdoZ0_azvyJZ9i20PAHD-18" value="Course" style="whiteSpace=wrap;html=1;align=center;" parent="1" vertex="1">
          <mxGeometry x="-366" y="375" width="100" height="40" as="geometry" />
        </mxCell>
        <mxCell id="qdoZ0_azvyJZ9i20PAHD-67" value="M" style="rounded=0;orthogonalLoop=1;jettySize=auto;html=1;endArrow=none;endFill=0;shape=link;" parent="1" source="qdoZ0_azvyJZ9i20PAHD-19" target="qdoZ0_azvyJZ9i20PAHD-65" edge="1">
          <mxGeometry relative="1" as="geometry">
            <mxPoint as="offset" />
          </mxGeometry>
        </mxCell>
        <mxCell id="qdoZ0_azvyJZ9i20PAHD-70" value="M" style="rounded=0;orthogonalLoop=1;jettySize=auto;html=1;exitX=0;exitY=0.5;exitDx=0;exitDy=0;entryX=1;entryY=0.5;entryDx=0;entryDy=0;endArrow=none;endFill=0;" parent="1" source="qdoZ0_azvyJZ9i20PAHD-19" target="qdoZ0_azvyJZ9i20PAHD-68" edge="1">
          <mxGeometry relative="1" as="geometry" />
        </mxCell>
        <mxCell id="qdoZ0_azvyJZ9i20PAHD-19" value="Branch" style="whiteSpace=wrap;html=1;align=center;" parent="1" vertex="1">
          <mxGeometry x="510" y="160" width="100" height="40" as="geometry" />
        </mxCell>
        <mxCell id="qdoZ0_azvyJZ9i20PAHD-93" value="1" style="rounded=0;orthogonalLoop=1;jettySize=auto;html=1;endArrow=none;endFill=0;" parent="1" source="qdoZ0_azvyJZ9i20PAHD-20" target="qdoZ0_azvyJZ9i20PAHD-92" edge="1">
          <mxGeometry relative="1" as="geometry" />
        </mxCell>
        <mxCell id="qdoZ0_azvyJZ9i20PAHD-156" value="1" style="rounded=0;orthogonalLoop=1;jettySize=auto;html=1;entryX=0;entryY=0.5;entryDx=0;entryDy=0;endArrow=none;endFill=0;shape=link;" parent="1" source="qdoZ0_azvyJZ9i20PAHD-20" target="qdoZ0_azvyJZ9i20PAHD-111" edge="1">
          <mxGeometry relative="1" as="geometry" />
        </mxCell>
        <mxCell id="IzAvOUgwbSu5JqP0lJlk-8" style="edgeStyle=orthogonalEdgeStyle;rounded=0;orthogonalLoop=1;jettySize=auto;html=1;exitX=1;exitY=0.25;exitDx=0;exitDy=0;entryX=0.5;entryY=1;entryDx=0;entryDy=0;endArrow=none;endFill=0;" parent="1" source="qdoZ0_azvyJZ9i20PAHD-20" target="IzAvOUgwbSu5JqP0lJlk-6" edge="1">
          <mxGeometry relative="1" as="geometry">
            <Array as="points">
              <mxPoint x="-270" y="982" />
              <mxPoint x="826" y="982" />
            </Array>
          </mxGeometry>
        </mxCell>
        <mxCell id="IzAvOUgwbSu5JqP0lJlk-12" value="M" style="edgeLabel;html=1;align=center;verticalAlign=middle;resizable=0;points=[];" parent="IzAvOUgwbSu5JqP0lJlk-8" vertex="1" connectable="0">
          <mxGeometry x="0.0246" y="-1" relative="1" as="geometry">
            <mxPoint x="1" as="offset" />
          </mxGeometry>
        </mxCell>
        <mxCell id="qdoZ0_azvyJZ9i20PAHD-20" value="Instructor" style="whiteSpace=wrap;html=1;align=center;" parent="1" vertex="1">
          <mxGeometry x="-370" y="780" width="100" height="40" as="geometry" />
        </mxCell>
        <mxCell id="qdoZ0_azvyJZ9i20PAHD-96" value="M" style="rounded=0;orthogonalLoop=1;jettySize=auto;html=1;endArrow=none;endFill=0;shape=link;" parent="1" source="qdoZ0_azvyJZ9i20PAHD-21" target="qdoZ0_azvyJZ9i20PAHD-95" edge="1">
          <mxGeometry relative="1" as="geometry" />
        </mxCell>
        <mxCell id="qdoZ0_azvyJZ9i20PAHD-21" value="Student" style="whiteSpace=wrap;html=1;align=center;" parent="1" vertex="1">
          <mxGeometry x="73" y="375" width="100" height="40" as="geometry" />
        </mxCell>
        <mxCell id="aZKWLkrj-SSMz89DwlnP-3" style="rounded=0;orthogonalLoop=1;jettySize=auto;html=1;exitX=0.5;exitY=0;exitDx=0;exitDy=0;entryX=0.5;entryY=1;entryDx=0;entryDy=0;endArrow=none;endFill=0;shape=link;" parent="1" source="qdoZ0_azvyJZ9i20PAHD-22" target="qdoZ0_azvyJZ9i20PAHD-118" edge="1">
          <mxGeometry relative="1" as="geometry" />
        </mxCell>
        <mxCell id="aZKWLkrj-SSMz89DwlnP-5" value="M" style="edgeLabel;html=1;align=center;verticalAlign=middle;resizable=0;points=[];" parent="aZKWLkrj-SSMz89DwlnP-3" vertex="1" connectable="0">
          <mxGeometry x="0.0409" y="-4" relative="1" as="geometry">
            <mxPoint x="-8" y="9" as="offset" />
          </mxGeometry>
        </mxCell>
        <mxCell id="qdoZ0_azvyJZ9i20PAHD-22" value="Question" style="whiteSpace=wrap;html=1;align=center;" parent="1" vertex="1">
          <mxGeometry x="261" y="570" width="100" height="40" as="geometry" />
        </mxCell>
        <mxCell id="qdoZ0_azvyJZ9i20PAHD-23" value="DepartmentID " style="ellipse;whiteSpace=wrap;html=1;align=center;fontStyle=4;" parent="1" vertex="1">
          <mxGeometry x="837" y="80" width="100" height="40" as="geometry" />
        </mxCell>
        <mxCell id="qdoZ0_azvyJZ9i20PAHD-61" style="rounded=0;orthogonalLoop=1;jettySize=auto;html=1;entryX=0.75;entryY=0;entryDx=0;entryDy=0;endArrow=none;endFill=0;" parent="1" source="qdoZ0_azvyJZ9i20PAHD-25" target="qdoZ0_azvyJZ9i20PAHD-13" edge="1">
          <mxGeometry relative="1" as="geometry" />
        </mxCell>
        <mxCell id="qdoZ0_azvyJZ9i20PAHD-25" value="DepartmentName" style="ellipse;whiteSpace=wrap;html=1;align=center;" parent="1" vertex="1">
          <mxGeometry x="950" y="80" width="121" height="60" as="geometry" />
        </mxCell>
        <mxCell id="qdoZ0_azvyJZ9i20PAHD-26" value="BranchName" style="ellipse;whiteSpace=wrap;html=1;align=center;" parent="1" vertex="1">
          <mxGeometry x="560" y="70" width="100" height="40" as="geometry" />
        </mxCell>
        <mxCell id="qdoZ0_azvyJZ9i20PAHD-27" value="BranchID " style="ellipse;whiteSpace=wrap;html=1;align=center;fontStyle=4;" parent="1" vertex="1">
          <mxGeometry x="449" y="68" width="100" height="40" as="geometry" />
        </mxCell>
        <mxCell id="qdoZ0_azvyJZ9i20PAHD-74" style="rounded=0;orthogonalLoop=1;jettySize=auto;html=1;exitX=0.5;exitY=1;exitDx=0;exitDy=0;endArrow=none;endFill=0;" parent="1" source="qdoZ0_azvyJZ9i20PAHD-29" target="qdoZ0_azvyJZ9i20PAHD-16" edge="1">
          <mxGeometry relative="1" as="geometry" />
        </mxCell>
        <mxCell id="qdoZ0_azvyJZ9i20PAHD-29" value="TrackName" style="ellipse;whiteSpace=wrap;html=1;align=center;" parent="1" vertex="1">
          <mxGeometry x="110" y="90" width="100" height="40" as="geometry" />
        </mxCell>
        <mxCell id="qdoZ0_azvyJZ9i20PAHD-30" value="TrackID " style="ellipse;whiteSpace=wrap;html=1;align=center;fontStyle=4;" parent="1" vertex="1">
          <mxGeometry x="-2" y="92" width="100" height="40" as="geometry" />
        </mxCell>
        <mxCell id="qdoZ0_azvyJZ9i20PAHD-31" value="IntakeID " style="ellipse;whiteSpace=wrap;html=1;align=center;fontStyle=4;" parent="1" vertex="1">
          <mxGeometry x="740" y="316" width="100" height="40" as="geometry" />
        </mxCell>
        <mxCell id="qdoZ0_azvyJZ9i20PAHD-72" style="rounded=0;orthogonalLoop=1;jettySize=auto;html=1;exitX=0;exitY=1;exitDx=0;exitDy=0;entryX=1;entryY=0;entryDx=0;entryDy=0;endArrow=none;endFill=0;" parent="1" source="qdoZ0_azvyJZ9i20PAHD-32" target="qdoZ0_azvyJZ9i20PAHD-14" edge="1">
          <mxGeometry relative="1" as="geometry" />
        </mxCell>
        <mxCell id="qdoZ0_azvyJZ9i20PAHD-32" value="IntakeName" style="ellipse;whiteSpace=wrap;html=1;align=center;" parent="1" vertex="1">
          <mxGeometry x="740" y="260" width="100" height="40" as="geometry" />
        </mxCell>
        <mxCell id="qdoZ0_azvyJZ9i20PAHD-85" style="rounded=0;orthogonalLoop=1;jettySize=auto;html=1;exitX=1;exitY=0.5;exitDx=0;exitDy=0;entryX=0;entryY=0;entryDx=0;entryDy=0;endArrow=none;endFill=0;" parent="1" source="qdoZ0_azvyJZ9i20PAHD-33" target="qdoZ0_azvyJZ9i20PAHD-18" edge="1">
          <mxGeometry relative="1" as="geometry" />
        </mxCell>
        <mxCell id="qdoZ0_azvyJZ9i20PAHD-33" value="CourseID " style="ellipse;whiteSpace=wrap;html=1;align=center;fontStyle=4;" parent="1" vertex="1">
          <mxGeometry x="-560" y="300" width="100" height="40" as="geometry" />
        </mxCell>
        <mxCell id="qdoZ0_azvyJZ9i20PAHD-84" style="rounded=0;orthogonalLoop=1;jettySize=auto;html=1;exitX=1;exitY=0.5;exitDx=0;exitDy=0;endArrow=none;endFill=0;" parent="1" source="qdoZ0_azvyJZ9i20PAHD-34" target="qdoZ0_azvyJZ9i20PAHD-18" edge="1">
          <mxGeometry relative="1" as="geometry" />
        </mxCell>
        <mxCell id="qdoZ0_azvyJZ9i20PAHD-34" value="CourseName" style="ellipse;whiteSpace=wrap;html=1;align=center;" parent="1" vertex="1">
          <mxGeometry x="-560" y="250" width="100" height="40" as="geometry" />
        </mxCell>
        <mxCell id="qdoZ0_azvyJZ9i20PAHD-188" style="rounded=0;orthogonalLoop=1;jettySize=auto;html=1;entryX=0;entryY=0.5;entryDx=0;entryDy=0;endArrow=none;endFill=0;" parent="1" source="qdoZ0_azvyJZ9i20PAHD-35" target="qdoZ0_azvyJZ9i20PAHD-18" edge="1">
          <mxGeometry relative="1" as="geometry" />
        </mxCell>
        <mxCell id="qdoZ0_azvyJZ9i20PAHD-35" value="Description" style="ellipse;whiteSpace=wrap;html=1;align=center;" parent="1" vertex="1">
          <mxGeometry x="-560" y="350" width="100" height="40" as="geometry" />
        </mxCell>
        <mxCell id="qdoZ0_azvyJZ9i20PAHD-36" value="MaxDegree" style="ellipse;whiteSpace=wrap;html=1;align=center;" parent="1" vertex="1">
          <mxGeometry x="-560" y="450" width="100" height="40" as="geometry" />
        </mxCell>
        <mxCell id="qdoZ0_azvyJZ9i20PAHD-87" style="rounded=0;orthogonalLoop=1;jettySize=auto;html=1;exitX=1;exitY=0.5;exitDx=0;exitDy=0;endArrow=none;endFill=0;" parent="1" source="qdoZ0_azvyJZ9i20PAHD-37" target="qdoZ0_azvyJZ9i20PAHD-18" edge="1">
          <mxGeometry relative="1" as="geometry" />
        </mxCell>
        <mxCell id="qdoZ0_azvyJZ9i20PAHD-37" value="MinDegree" style="ellipse;whiteSpace=wrap;html=1;align=center;" parent="1" vertex="1">
          <mxGeometry x="-560" y="400" width="100" height="40" as="geometry" />
        </mxCell>
        <mxCell id="qdoZ0_azvyJZ9i20PAHD-90" style="rounded=0;orthogonalLoop=1;jettySize=auto;html=1;exitX=1;exitY=0.5;exitDx=0;exitDy=0;entryX=0;entryY=0.75;entryDx=0;entryDy=0;endArrow=none;endFill=0;" parent="1" source="qdoZ0_azvyJZ9i20PAHD-38" target="qdoZ0_azvyJZ9i20PAHD-20" edge="1">
          <mxGeometry relative="1" as="geometry" />
        </mxCell>
        <mxCell id="qdoZ0_azvyJZ9i20PAHD-38" value="InstructorID " style="ellipse;whiteSpace=wrap;html=1;align=center;fontStyle=4;" parent="1" vertex="1">
          <mxGeometry x="-560" y="800" width="100" height="40" as="geometry" />
        </mxCell>
        <mxCell id="qdoZ0_azvyJZ9i20PAHD-89" style="rounded=0;orthogonalLoop=1;jettySize=auto;html=1;exitX=1;exitY=0.5;exitDx=0;exitDy=0;entryX=0.25;entryY=0;entryDx=0;entryDy=0;endArrow=none;endFill=0;" parent="1" source="qdoZ0_azvyJZ9i20PAHD-39" target="qdoZ0_azvyJZ9i20PAHD-20" edge="1">
          <mxGeometry relative="1" as="geometry" />
        </mxCell>
        <mxCell id="qdoZ0_azvyJZ9i20PAHD-39" value="InstructorName" style="ellipse;whiteSpace=wrap;html=1;align=center;" parent="1" vertex="1">
          <mxGeometry x="-560" y="720" width="100" height="40" as="geometry" />
        </mxCell>
        <mxCell id="qdoZ0_azvyJZ9i20PAHD-186" style="rounded=0;orthogonalLoop=1;jettySize=auto;html=1;exitX=0.5;exitY=1;exitDx=0;exitDy=0;entryX=0.25;entryY=0;entryDx=0;entryDy=0;endArrow=none;endFill=0;" parent="1" source="qdoZ0_azvyJZ9i20PAHD-40" target="qdoZ0_azvyJZ9i20PAHD-21" edge="1">
          <mxGeometry relative="1" as="geometry" />
        </mxCell>
        <mxCell id="qdoZ0_azvyJZ9i20PAHD-40" value="StudentID " style="ellipse;whiteSpace=wrap;html=1;align=center;fontStyle=4;" parent="1" vertex="1">
          <mxGeometry x="46" y="270" width="100" height="40" as="geometry" />
        </mxCell>
        <mxCell id="qdoZ0_azvyJZ9i20PAHD-185" style="rounded=0;orthogonalLoop=1;jettySize=auto;html=1;exitX=0.5;exitY=1;exitDx=0;exitDy=0;entryX=0.5;entryY=0;entryDx=0;entryDy=0;endArrow=none;endFill=0;" parent="1" source="qdoZ0_azvyJZ9i20PAHD-41" target="qdoZ0_azvyJZ9i20PAHD-21" edge="1">
          <mxGeometry relative="1" as="geometry" />
        </mxCell>
        <mxCell id="qdoZ0_azvyJZ9i20PAHD-41" value="StudentName" style="ellipse;whiteSpace=wrap;html=1;align=center;" parent="1" vertex="1">
          <mxGeometry x="140" y="300" width="100" height="40" as="geometry" />
        </mxCell>
        <mxCell id="qdoZ0_azvyJZ9i20PAHD-181" style="rounded=0;orthogonalLoop=1;jettySize=auto;html=1;entryX=0;entryY=0;entryDx=0;entryDy=0;endArrow=none;endFill=0;" parent="1" source="qdoZ0_azvyJZ9i20PAHD-42" target="qdoZ0_azvyJZ9i20PAHD-22" edge="1">
          <mxGeometry relative="1" as="geometry" />
        </mxCell>
        <mxCell id="qdoZ0_azvyJZ9i20PAHD-42" value="QuestionID " style="ellipse;whiteSpace=wrap;html=1;align=center;fontStyle=4;" parent="1" vertex="1">
          <mxGeometry x="140" y="524" width="100" height="40" as="geometry" />
        </mxCell>
        <mxCell id="qdoZ0_azvyJZ9i20PAHD-184" style="rounded=0;orthogonalLoop=1;jettySize=auto;html=1;endArrow=none;endFill=0;" parent="1" source="qdoZ0_azvyJZ9i20PAHD-46" target="qdoZ0_azvyJZ9i20PAHD-22" edge="1">
          <mxGeometry relative="1" as="geometry" />
        </mxCell>
        <mxCell id="qdoZ0_azvyJZ9i20PAHD-46" value="CorrectAnswer " style="ellipse;whiteSpace=wrap;html=1;align=center;" parent="1" vertex="1">
          <mxGeometry x="281" y="627" width="100" height="40" as="geometry" />
        </mxCell>
        <mxCell id="qdoZ0_azvyJZ9i20PAHD-183" style="rounded=0;orthogonalLoop=1;jettySize=auto;html=1;entryX=0.14;entryY=-0.075;entryDx=0;entryDy=0;endArrow=none;endFill=0;entryPerimeter=0;" parent="1" source="qdoZ0_azvyJZ9i20PAHD-47" target="qdoZ0_azvyJZ9i20PAHD-22" edge="1">
          <mxGeometry relative="1" as="geometry" />
        </mxCell>
        <mxCell id="qdoZ0_azvyJZ9i20PAHD-47" value="Type " style="ellipse;whiteSpace=wrap;html=1;align=center;" parent="1" vertex="1">
          <mxGeometry x="223" y="493" width="100" height="40" as="geometry" />
        </mxCell>
        <mxCell id="qdoZ0_azvyJZ9i20PAHD-182" style="rounded=0;orthogonalLoop=1;jettySize=auto;html=1;entryX=0.128;entryY=1.003;entryDx=0;entryDy=0;endArrow=none;endFill=0;entryPerimeter=0;" parent="1" source="qdoZ0_azvyJZ9i20PAHD-48" target="qdoZ0_azvyJZ9i20PAHD-22" edge="1">
          <mxGeometry relative="1" as="geometry" />
        </mxCell>
        <mxCell id="qdoZ0_azvyJZ9i20PAHD-48" value="QuestionText" style="ellipse;whiteSpace=wrap;html=1;align=center;" parent="1" vertex="1">
          <mxGeometry x="170" y="625" width="100" height="40" as="geometry" />
        </mxCell>
        <mxCell id="qdoZ0_azvyJZ9i20PAHD-176" style="rounded=0;orthogonalLoop=1;jettySize=auto;html=1;exitX=0;exitY=0.5;exitDx=0;exitDy=0;endArrow=none;endFill=0;entryX=1;entryY=1;entryDx=0;entryDy=0;" parent="1" source="qdoZ0_azvyJZ9i20PAHD-49" target="qdoZ0_azvyJZ9i20PAHD-15" edge="1">
          <mxGeometry relative="1" as="geometry">
            <mxPoint x="581" y="737" as="targetPoint" />
          </mxGeometry>
        </mxCell>
        <mxCell id="qdoZ0_azvyJZ9i20PAHD-49" value="ExamID " style="ellipse;whiteSpace=wrap;html=1;align=center;fontStyle=4;" parent="1" vertex="1">
          <mxGeometry x="526" y="879" width="100" height="40" as="geometry" />
        </mxCell>
        <mxCell id="qdoZ0_azvyJZ9i20PAHD-175" style="rounded=0;orthogonalLoop=1;jettySize=auto;html=1;endArrow=none;endFill=0;entryX=1;entryY=0.75;entryDx=0;entryDy=0;" parent="1" source="qdoZ0_azvyJZ9i20PAHD-53" target="qdoZ0_azvyJZ9i20PAHD-15" edge="1">
          <mxGeometry relative="1" as="geometry">
            <mxPoint x="579.9999999999995" y="740" as="targetPoint" />
          </mxGeometry>
        </mxCell>
        <mxCell id="qdoZ0_azvyJZ9i20PAHD-53" value="TotalTime" style="ellipse;whiteSpace=wrap;html=1;align=center;dashed=1;" parent="1" vertex="1">
          <mxGeometry x="526" y="763" width="100" height="40" as="geometry" />
        </mxCell>
        <mxCell id="qdoZ0_azvyJZ9i20PAHD-174" style="rounded=0;orthogonalLoop=1;jettySize=auto;html=1;exitX=0;exitY=0.5;exitDx=0;exitDy=0;entryX=1;entryY=0.75;entryDx=0;entryDy=0;endArrow=none;endFill=0;" parent="1" source="qdoZ0_azvyJZ9i20PAHD-54" target="qdoZ0_azvyJZ9i20PAHD-15" edge="1">
          <mxGeometry relative="1" as="geometry" />
        </mxCell>
        <mxCell id="qdoZ0_azvyJZ9i20PAHD-54" value="EndTime" style="ellipse;whiteSpace=wrap;html=1;align=center;" parent="1" vertex="1">
          <mxGeometry x="523" y="706" width="100" height="40" as="geometry" />
        </mxCell>
        <mxCell id="qdoZ0_azvyJZ9i20PAHD-173" style="rounded=0;orthogonalLoop=1;jettySize=auto;html=1;exitX=0;exitY=0.5;exitDx=0;exitDy=0;entryX=1;entryY=0.25;entryDx=0;entryDy=0;endArrow=none;endFill=0;" parent="1" source="qdoZ0_azvyJZ9i20PAHD-55" target="qdoZ0_azvyJZ9i20PAHD-15" edge="1">
          <mxGeometry relative="1" as="geometry" />
        </mxCell>
        <mxCell id="qdoZ0_azvyJZ9i20PAHD-55" value="StartTime" style="ellipse;whiteSpace=wrap;html=1;align=center;" parent="1" vertex="1">
          <mxGeometry x="517" y="654" width="100" height="40" as="geometry" />
        </mxCell>
        <mxCell id="qdoZ0_azvyJZ9i20PAHD-60" style="rounded=0;orthogonalLoop=1;jettySize=auto;html=1;exitX=0.5;exitY=1;exitDx=0;exitDy=0;entryX=0.5;entryY=0;entryDx=0;entryDy=0;endArrow=none;endFill=0;" parent="1" source="qdoZ0_azvyJZ9i20PAHD-23" target="qdoZ0_azvyJZ9i20PAHD-13" edge="1">
          <mxGeometry relative="1" as="geometry" />
        </mxCell>
        <mxCell id="qdoZ0_azvyJZ9i20PAHD-63" style="rounded=0;orthogonalLoop=1;jettySize=auto;html=1;entryX=0.75;entryY=0;entryDx=0;entryDy=0;endArrow=none;endFill=0;" parent="1" source="qdoZ0_azvyJZ9i20PAHD-26" target="qdoZ0_azvyJZ9i20PAHD-19" edge="1">
          <mxGeometry relative="1" as="geometry" />
        </mxCell>
        <mxCell id="qdoZ0_azvyJZ9i20PAHD-64" style="rounded=0;orthogonalLoop=1;jettySize=auto;html=1;entryX=0.25;entryY=0;entryDx=0;entryDy=0;endArrow=none;endFill=0;" parent="1" source="qdoZ0_azvyJZ9i20PAHD-27" target="qdoZ0_azvyJZ9i20PAHD-19" edge="1">
          <mxGeometry relative="1" as="geometry" />
        </mxCell>
        <mxCell id="qdoZ0_azvyJZ9i20PAHD-65" value="HAS" style="rhombus;whiteSpace=wrap;html=1;" parent="1" vertex="1">
          <mxGeometry x="697" y="150" width="60" height="60" as="geometry" />
        </mxCell>
        <mxCell id="qdoZ0_azvyJZ9i20PAHD-68" value="HAS" style="rhombus;whiteSpace=wrap;html=1;" parent="1" vertex="1">
          <mxGeometry x="333" y="150" width="60" height="60" as="geometry" />
        </mxCell>
        <mxCell id="qdoZ0_azvyJZ9i20PAHD-73" style="rounded=0;orthogonalLoop=1;jettySize=auto;html=1;entryX=1;entryY=0.5;entryDx=0;entryDy=0;endArrow=none;endFill=0;" parent="1" source="qdoZ0_azvyJZ9i20PAHD-31" target="qdoZ0_azvyJZ9i20PAHD-14" edge="1">
          <mxGeometry relative="1" as="geometry" />
        </mxCell>
        <mxCell id="qdoZ0_azvyJZ9i20PAHD-75" style="rounded=0;orthogonalLoop=1;jettySize=auto;html=1;entryX=0.25;entryY=0;entryDx=0;entryDy=0;endArrow=none;endFill=0;" parent="1" source="qdoZ0_azvyJZ9i20PAHD-30" target="qdoZ0_azvyJZ9i20PAHD-16" edge="1">
          <mxGeometry relative="1" as="geometry" />
        </mxCell>
        <mxCell id="qdoZ0_azvyJZ9i20PAHD-167" value="M" style="rounded=0;orthogonalLoop=1;jettySize=auto;html=1;entryX=0;entryY=0;entryDx=0;entryDy=0;endArrow=none;endFill=0;shape=link;exitX=0.5;exitY=1;exitDx=0;exitDy=0;" parent="1" source="qdoZ0_azvyJZ9i20PAHD-68" target="qdoZ0_azvyJZ9i20PAHD-14" edge="1">
          <mxGeometry relative="1" as="geometry">
            <mxPoint x="624.0406032482597" y="277.03944315545243" as="sourcePoint" />
          </mxGeometry>
        </mxCell>
        <mxCell id="qdoZ0_azvyJZ9i20PAHD-88" style="rounded=0;orthogonalLoop=1;jettySize=auto;html=1;exitX=1;exitY=0.5;exitDx=0;exitDy=0;entryX=0.11;entryY=1.05;entryDx=0;entryDy=0;entryPerimeter=0;endArrow=none;endFill=0;" parent="1" source="qdoZ0_azvyJZ9i20PAHD-36" target="qdoZ0_azvyJZ9i20PAHD-18" edge="1">
          <mxGeometry relative="1" as="geometry" />
        </mxCell>
        <mxCell id="qdoZ0_azvyJZ9i20PAHD-94" value="M" style="rounded=0;orthogonalLoop=1;jettySize=auto;html=1;entryX=0.5;entryY=1;entryDx=0;entryDy=0;endArrow=none;endFill=0;shape=link;" parent="1" source="qdoZ0_azvyJZ9i20PAHD-92" target="qdoZ0_azvyJZ9i20PAHD-18" edge="1">
          <mxGeometry relative="1" as="geometry" />
        </mxCell>
        <mxCell id="qdoZ0_azvyJZ9i20PAHD-92" value="TEACH" style="rhombus;whiteSpace=wrap;html=1;" parent="1" vertex="1">
          <mxGeometry x="-355" y="550" width="70" height="60" as="geometry" />
        </mxCell>
        <mxCell id="qdoZ0_azvyJZ9i20PAHD-97" value="M" style="rounded=0;orthogonalLoop=1;jettySize=auto;html=1;entryX=1;entryY=0.5;entryDx=0;entryDy=0;endArrow=none;endFill=0;" parent="1" source="qdoZ0_azvyJZ9i20PAHD-95" target="qdoZ0_azvyJZ9i20PAHD-18" edge="1">
          <mxGeometry relative="1" as="geometry" />
        </mxCell>
        <mxCell id="qdoZ0_azvyJZ9i20PAHD-95" value="TAKE" style="rhombus;whiteSpace=wrap;html=1;" parent="1" vertex="1">
          <mxGeometry x="-124" y="365" width="60" height="60" as="geometry" />
        </mxCell>
        <mxCell id="qdoZ0_azvyJZ9i20PAHD-168" value="1" style="rounded=0;orthogonalLoop=1;jettySize=auto;html=1;entryX=0;entryY=0.75;entryDx=0;entryDy=0;endArrow=none;endFill=0;" parent="1" source="qdoZ0_azvyJZ9i20PAHD-99" target="qdoZ0_azvyJZ9i20PAHD-14" edge="1">
          <mxGeometry relative="1" as="geometry">
            <Array as="points" />
          </mxGeometry>
        </mxCell>
        <mxCell id="qdoZ0_azvyJZ9i20PAHD-169" value="M" style="rounded=0;orthogonalLoop=1;jettySize=auto;html=1;exitX=0;exitY=0.5;exitDx=0;exitDy=0;entryX=0.75;entryY=0;entryDx=0;entryDy=0;endArrow=none;endFill=0;shape=link;" parent="1" source="qdoZ0_azvyJZ9i20PAHD-99" target="qdoZ0_azvyJZ9i20PAHD-15" edge="1">
          <mxGeometry relative="1" as="geometry" />
        </mxCell>
        <mxCell id="qdoZ0_azvyJZ9i20PAHD-99" value="has" style="rhombus;whiteSpace=wrap;html=1;" parent="1" vertex="1">
          <mxGeometry x="556" y="466" width="80" height="80" as="geometry" />
        </mxCell>
        <mxCell id="qdoZ0_azvyJZ9i20PAHD-164" value="M" style="rounded=0;orthogonalLoop=1;jettySize=auto;html=1;entryX=0;entryY=0;entryDx=0;entryDy=0;endArrow=none;endFill=0;" parent="1" source="qdoZ0_azvyJZ9i20PAHD-107" target="qdoZ0_azvyJZ9i20PAHD-15" edge="1">
          <mxGeometry relative="1" as="geometry" />
        </mxCell>
        <mxCell id="qdoZ0_azvyJZ9i20PAHD-107" value="has" style="rhombus;whiteSpace=wrap;html=1;" parent="1" vertex="1">
          <mxGeometry x="-151" y="602" width="80" height="80" as="geometry" />
        </mxCell>
        <mxCell id="qdoZ0_azvyJZ9i20PAHD-166" value="M" style="rounded=0;orthogonalLoop=1;jettySize=auto;html=1;entryX=0;entryY=1;entryDx=0;entryDy=0;endArrow=none;endFill=0;" parent="1" source="qdoZ0_azvyJZ9i20PAHD-111" target="qdoZ0_azvyJZ9i20PAHD-15" edge="1">
          <mxGeometry relative="1" as="geometry" />
        </mxCell>
        <mxCell id="qdoZ0_azvyJZ9i20PAHD-111" value="make" style="rhombus;whiteSpace=wrap;html=1;" parent="1" vertex="1">
          <mxGeometry x="-40" y="760" width="80" height="80" as="geometry" />
        </mxCell>
        <mxCell id="qdoZ0_azvyJZ9i20PAHD-119" value="M" style="rounded=0;orthogonalLoop=1;jettySize=auto;html=1;exitX=1;exitY=0.5;exitDx=0;exitDy=0;entryX=0.25;entryY=0;entryDx=0;entryDy=0;endArrow=none;endFill=0;shape=link;" parent="1" source="qdoZ0_azvyJZ9i20PAHD-118" target="qdoZ0_azvyJZ9i20PAHD-15" edge="1">
          <mxGeometry relative="1" as="geometry" />
        </mxCell>
        <mxCell id="qdoZ0_azvyJZ9i20PAHD-154" value="1" style="rounded=0;orthogonalLoop=1;jettySize=auto;html=1;exitX=0;exitY=0.5;exitDx=0;exitDy=0;entryX=1;entryY=0.5;entryDx=0;entryDy=0;endArrow=none;endFill=0;" parent="1" source="qdoZ0_azvyJZ9i20PAHD-118" target="qdoZ0_azvyJZ9i20PAHD-21" edge="1">
          <mxGeometry relative="1" as="geometry" />
        </mxCell>
        <mxCell id="qdoZ0_azvyJZ9i20PAHD-189" value="M" style="edgeLabel;html=1;align=center;verticalAlign=middle;resizable=0;points=[];" parent="qdoZ0_azvyJZ9i20PAHD-154" vertex="1" connectable="0">
          <mxGeometry x="-0.0552" y="1" relative="1" as="geometry">
            <mxPoint as="offset" />
          </mxGeometry>
        </mxCell>
        <mxCell id="qdoZ0_azvyJZ9i20PAHD-118" value="take" style="shape=rhombus;perimeter=rhombusPerimeter;whiteSpace=wrap;html=1;align=center;" parent="1" vertex="1">
          <mxGeometry x="320" y="453" width="110" height="60" as="geometry" />
        </mxCell>
        <mxCell id="qdoZ0_azvyJZ9i20PAHD-127" style="edgeStyle=orthogonalEdgeStyle;rounded=0;orthogonalLoop=1;jettySize=auto;html=1;exitX=0.5;exitY=1;exitDx=0;exitDy=0;" parent="1" edge="1">
          <mxGeometry relative="1" as="geometry">
            <mxPoint x="576" y="822.9999999999998" as="sourcePoint" />
            <mxPoint x="576" y="822.9999999999998" as="targetPoint" />
          </mxGeometry>
        </mxCell>
        <mxCell id="qdoZ0_azvyJZ9i20PAHD-190" value="Department " style="shape=table;startSize=30;container=1;collapsible=1;childLayout=tableLayout;fixedRows=1;rowLines=0;fontStyle=1;align=center;resizeLast=1;html=1;" parent="1" vertex="1">
          <mxGeometry x="1625" y="403" width="180" height="150" as="geometry" />
        </mxCell>
        <mxCell id="qdoZ0_azvyJZ9i20PAHD-191" value="" style="shape=tableRow;horizontal=0;startSize=0;swimlaneHead=0;swimlaneBody=0;fillColor=none;collapsible=0;dropTarget=0;points=[[0,0.5],[1,0.5]];portConstraint=eastwest;top=0;left=0;right=0;bottom=1;" parent="qdoZ0_azvyJZ9i20PAHD-190" vertex="1">
          <mxGeometry y="30" width="180" height="30" as="geometry" />
        </mxCell>
        <mxCell id="qdoZ0_azvyJZ9i20PAHD-192" value="PK" style="shape=partialRectangle;connectable=0;fillColor=none;top=0;left=0;bottom=0;right=0;fontStyle=1;overflow=hidden;whiteSpace=wrap;html=1;" parent="qdoZ0_azvyJZ9i20PAHD-191" vertex="1">
          <mxGeometry width="30" height="30" as="geometry">
            <mxRectangle width="30" height="30" as="alternateBounds" />
          </mxGeometry>
        </mxCell>
        <mxCell id="qdoZ0_azvyJZ9i20PAHD-193" value="DepartmentID " style="shape=partialRectangle;connectable=0;fillColor=none;top=0;left=0;bottom=0;right=0;align=left;spacingLeft=6;fontStyle=5;overflow=hidden;whiteSpace=wrap;html=1;" parent="qdoZ0_azvyJZ9i20PAHD-191" vertex="1">
          <mxGeometry x="30" width="150" height="30" as="geometry">
            <mxRectangle width="150" height="30" as="alternateBounds" />
          </mxGeometry>
        </mxCell>
        <mxCell id="qdoZ0_azvyJZ9i20PAHD-194" value="" style="shape=tableRow;horizontal=0;startSize=0;swimlaneHead=0;swimlaneBody=0;fillColor=none;collapsible=0;dropTarget=0;points=[[0,0.5],[1,0.5]];portConstraint=eastwest;top=0;left=0;right=0;bottom=0;" parent="qdoZ0_azvyJZ9i20PAHD-190" vertex="1">
          <mxGeometry y="60" width="180" height="30" as="geometry" />
        </mxCell>
        <mxCell id="qdoZ0_azvyJZ9i20PAHD-195" value="" style="shape=partialRectangle;connectable=0;fillColor=none;top=0;left=0;bottom=0;right=0;editable=1;overflow=hidden;whiteSpace=wrap;html=1;" parent="qdoZ0_azvyJZ9i20PAHD-194" vertex="1">
          <mxGeometry width="30" height="30" as="geometry">
            <mxRectangle width="30" height="30" as="alternateBounds" />
          </mxGeometry>
        </mxCell>
        <mxCell id="qdoZ0_azvyJZ9i20PAHD-196" value="DepartmentName" style="shape=partialRectangle;connectable=0;fillColor=none;top=0;left=0;bottom=0;right=0;align=left;spacingLeft=6;overflow=hidden;whiteSpace=wrap;html=1;" parent="qdoZ0_azvyJZ9i20PAHD-194" vertex="1">
          <mxGeometry x="30" width="150" height="30" as="geometry">
            <mxRectangle width="150" height="30" as="alternateBounds" />
          </mxGeometry>
        </mxCell>
        <mxCell id="PtFR83vLkZRr8itx2phC-1" style="shape=tableRow;horizontal=0;startSize=0;swimlaneHead=0;swimlaneBody=0;fillColor=none;collapsible=0;dropTarget=0;points=[[0,0.5],[1,0.5]];portConstraint=eastwest;top=0;left=0;right=0;bottom=0;" parent="qdoZ0_azvyJZ9i20PAHD-190" vertex="1">
          <mxGeometry y="90" width="180" height="30" as="geometry" />
        </mxCell>
        <mxCell id="PtFR83vLkZRr8itx2phC-2" style="shape=partialRectangle;connectable=0;fillColor=none;top=0;left=0;bottom=0;right=0;editable=1;overflow=hidden;whiteSpace=wrap;html=1;" parent="PtFR83vLkZRr8itx2phC-1" vertex="1">
          <mxGeometry width="30" height="30" as="geometry">
            <mxRectangle width="30" height="30" as="alternateBounds" />
          </mxGeometry>
        </mxCell>
        <mxCell id="PtFR83vLkZRr8itx2phC-3" value="Address" style="shape=partialRectangle;connectable=0;fillColor=none;top=0;left=0;bottom=0;right=0;align=left;spacingLeft=6;overflow=hidden;whiteSpace=wrap;html=1;" parent="PtFR83vLkZRr8itx2phC-1" vertex="1">
          <mxGeometry x="30" width="150" height="30" as="geometry">
            <mxRectangle width="150" height="30" as="alternateBounds" />
          </mxGeometry>
        </mxCell>
        <mxCell id="PtFR83vLkZRr8itx2phC-4" style="shape=tableRow;horizontal=0;startSize=0;swimlaneHead=0;swimlaneBody=0;fillColor=none;collapsible=0;dropTarget=0;points=[[0,0.5],[1,0.5]];portConstraint=eastwest;top=0;left=0;right=0;bottom=0;" parent="qdoZ0_azvyJZ9i20PAHD-190" vertex="1">
          <mxGeometry y="120" width="180" height="30" as="geometry" />
        </mxCell>
        <mxCell id="PtFR83vLkZRr8itx2phC-5" style="shape=partialRectangle;connectable=0;fillColor=none;top=0;left=0;bottom=0;right=0;editable=1;overflow=hidden;whiteSpace=wrap;html=1;" parent="PtFR83vLkZRr8itx2phC-4" vertex="1">
          <mxGeometry width="30" height="30" as="geometry">
            <mxRectangle width="30" height="30" as="alternateBounds" />
          </mxGeometry>
        </mxCell>
        <mxCell id="PtFR83vLkZRr8itx2phC-6" value="Phone" style="shape=partialRectangle;connectable=0;fillColor=none;top=0;left=0;bottom=0;right=0;align=left;spacingLeft=6;overflow=hidden;whiteSpace=wrap;html=1;" parent="PtFR83vLkZRr8itx2phC-4" vertex="1">
          <mxGeometry x="30" width="150" height="30" as="geometry">
            <mxRectangle width="150" height="30" as="alternateBounds" />
          </mxGeometry>
        </mxCell>
        <mxCell id="qdoZ0_azvyJZ9i20PAHD-203" value="Branch " style="shape=table;startSize=30;container=1;collapsible=1;childLayout=tableLayout;fixedRows=1;rowLines=0;fontStyle=1;align=center;resizeLast=1;html=1;" parent="1" vertex="1">
          <mxGeometry x="1870" y="403" width="180" height="181" as="geometry" />
        </mxCell>
        <mxCell id="qdoZ0_azvyJZ9i20PAHD-204" value="" style="shape=tableRow;horizontal=0;startSize=0;swimlaneHead=0;swimlaneBody=0;fillColor=none;collapsible=0;dropTarget=0;points=[[0,0.5],[1,0.5]];portConstraint=eastwest;top=0;left=0;right=0;bottom=1;" parent="qdoZ0_azvyJZ9i20PAHD-203" vertex="1">
          <mxGeometry y="30" width="180" height="30" as="geometry" />
        </mxCell>
        <mxCell id="qdoZ0_azvyJZ9i20PAHD-205" value="PK" style="shape=partialRectangle;connectable=0;fillColor=none;top=0;left=0;bottom=0;right=0;fontStyle=1;overflow=hidden;whiteSpace=wrap;html=1;" parent="qdoZ0_azvyJZ9i20PAHD-204" vertex="1">
          <mxGeometry width="30" height="30" as="geometry">
            <mxRectangle width="30" height="30" as="alternateBounds" />
          </mxGeometry>
        </mxCell>
        <mxCell id="qdoZ0_azvyJZ9i20PAHD-206" value="BranchID " style="shape=partialRectangle;connectable=0;fillColor=none;top=0;left=0;bottom=0;right=0;align=left;spacingLeft=6;fontStyle=5;overflow=hidden;whiteSpace=wrap;html=1;" parent="qdoZ0_azvyJZ9i20PAHD-204" vertex="1">
          <mxGeometry x="30" width="150" height="30" as="geometry">
            <mxRectangle width="150" height="30" as="alternateBounds" />
          </mxGeometry>
        </mxCell>
        <mxCell id="qdoZ0_azvyJZ9i20PAHD-207" value="" style="shape=tableRow;horizontal=0;startSize=0;swimlaneHead=0;swimlaneBody=0;fillColor=none;collapsible=0;dropTarget=0;points=[[0,0.5],[1,0.5]];portConstraint=eastwest;top=0;left=0;right=0;bottom=0;" parent="qdoZ0_azvyJZ9i20PAHD-203" vertex="1">
          <mxGeometry y="60" width="180" height="31" as="geometry" />
        </mxCell>
        <mxCell id="qdoZ0_azvyJZ9i20PAHD-208" value="" style="shape=partialRectangle;connectable=0;fillColor=none;top=0;left=0;bottom=0;right=0;editable=1;overflow=hidden;whiteSpace=wrap;html=1;" parent="qdoZ0_azvyJZ9i20PAHD-207" vertex="1">
          <mxGeometry width="30" height="31" as="geometry">
            <mxRectangle width="30" height="31" as="alternateBounds" />
          </mxGeometry>
        </mxCell>
        <mxCell id="qdoZ0_azvyJZ9i20PAHD-209" value="BranchName" style="shape=partialRectangle;connectable=0;fillColor=none;top=0;left=0;bottom=0;right=0;align=left;spacingLeft=6;overflow=hidden;whiteSpace=wrap;html=1;" parent="qdoZ0_azvyJZ9i20PAHD-207" vertex="1">
          <mxGeometry x="30" width="150" height="31" as="geometry">
            <mxRectangle width="150" height="31" as="alternateBounds" />
          </mxGeometry>
        </mxCell>
        <mxCell id="qdoZ0_azvyJZ9i20PAHD-474" style="shape=tableRow;horizontal=0;startSize=0;swimlaneHead=0;swimlaneBody=0;fillColor=none;collapsible=0;dropTarget=0;points=[[0,0.5],[1,0.5]];portConstraint=eastwest;top=0;left=0;right=0;bottom=0;" parent="qdoZ0_azvyJZ9i20PAHD-203" vertex="1">
          <mxGeometry y="91" width="180" height="30" as="geometry" />
        </mxCell>
        <mxCell id="qdoZ0_azvyJZ9i20PAHD-475" style="shape=partialRectangle;connectable=0;fillColor=none;top=0;left=0;bottom=0;right=0;editable=1;overflow=hidden;whiteSpace=wrap;html=1;" parent="qdoZ0_azvyJZ9i20PAHD-474" vertex="1">
          <mxGeometry width="30" height="30" as="geometry">
            <mxRectangle width="30" height="30" as="alternateBounds" />
          </mxGeometry>
        </mxCell>
        <mxCell id="qdoZ0_azvyJZ9i20PAHD-476" value="Address" style="shape=partialRectangle;connectable=0;fillColor=none;top=0;left=0;bottom=0;right=0;align=left;spacingLeft=6;overflow=hidden;whiteSpace=wrap;html=1;" parent="qdoZ0_azvyJZ9i20PAHD-474" vertex="1">
          <mxGeometry x="30" width="150" height="30" as="geometry">
            <mxRectangle width="150" height="30" as="alternateBounds" />
          </mxGeometry>
        </mxCell>
        <mxCell id="qdoZ0_azvyJZ9i20PAHD-477" style="shape=tableRow;horizontal=0;startSize=0;swimlaneHead=0;swimlaneBody=0;fillColor=none;collapsible=0;dropTarget=0;points=[[0,0.5],[1,0.5]];portConstraint=eastwest;top=0;left=0;right=0;bottom=0;" parent="qdoZ0_azvyJZ9i20PAHD-203" vertex="1">
          <mxGeometry y="121" width="180" height="30" as="geometry" />
        </mxCell>
        <mxCell id="qdoZ0_azvyJZ9i20PAHD-478" style="shape=partialRectangle;connectable=0;fillColor=none;top=0;left=0;bottom=0;right=0;editable=1;overflow=hidden;whiteSpace=wrap;html=1;" parent="qdoZ0_azvyJZ9i20PAHD-477" vertex="1">
          <mxGeometry width="30" height="30" as="geometry">
            <mxRectangle width="30" height="30" as="alternateBounds" />
          </mxGeometry>
        </mxCell>
        <mxCell id="qdoZ0_azvyJZ9i20PAHD-479" value="Phone" style="shape=partialRectangle;connectable=0;fillColor=none;top=0;left=0;bottom=0;right=0;align=left;spacingLeft=6;overflow=hidden;whiteSpace=wrap;html=1;" parent="qdoZ0_azvyJZ9i20PAHD-477" vertex="1">
          <mxGeometry x="30" width="150" height="30" as="geometry">
            <mxRectangle width="150" height="30" as="alternateBounds" />
          </mxGeometry>
        </mxCell>
        <mxCell id="qdoZ0_azvyJZ9i20PAHD-210" value="" style="shape=tableRow;horizontal=0;startSize=0;swimlaneHead=0;swimlaneBody=0;fillColor=none;collapsible=0;dropTarget=0;points=[[0,0.5],[1,0.5]];portConstraint=eastwest;top=0;left=0;right=0;bottom=0;" parent="qdoZ0_azvyJZ9i20PAHD-203" vertex="1">
          <mxGeometry y="151" width="180" height="30" as="geometry" />
        </mxCell>
        <mxCell id="qdoZ0_azvyJZ9i20PAHD-211" value="FK" style="shape=partialRectangle;connectable=0;fillColor=none;top=0;left=0;bottom=0;right=0;editable=1;overflow=hidden;whiteSpace=wrap;html=1;" parent="qdoZ0_azvyJZ9i20PAHD-210" vertex="1">
          <mxGeometry width="30" height="30" as="geometry">
            <mxRectangle width="30" height="30" as="alternateBounds" />
          </mxGeometry>
        </mxCell>
        <mxCell id="qdoZ0_azvyJZ9i20PAHD-212" value="DepartmentID " style="shape=partialRectangle;connectable=0;fillColor=none;top=0;left=0;bottom=0;right=0;align=left;spacingLeft=6;overflow=hidden;whiteSpace=wrap;html=1;" parent="qdoZ0_azvyJZ9i20PAHD-210" vertex="1">
          <mxGeometry x="30" width="150" height="30" as="geometry">
            <mxRectangle width="150" height="30" as="alternateBounds" />
          </mxGeometry>
        </mxCell>
        <mxCell id="qdoZ0_azvyJZ9i20PAHD-230" value="Course " style="shape=table;startSize=30;container=1;collapsible=1;childLayout=tableLayout;fixedRows=1;rowLines=0;fontStyle=1;align=center;resizeLast=1;html=1;" parent="1" vertex="1">
          <mxGeometry x="2345" y="592" width="180" height="191" as="geometry">
            <mxRectangle x="2107" y="403" width="76" height="30" as="alternateBounds" />
          </mxGeometry>
        </mxCell>
        <mxCell id="qdoZ0_azvyJZ9i20PAHD-231" value="" style="shape=tableRow;horizontal=0;startSize=0;swimlaneHead=0;swimlaneBody=0;fillColor=none;collapsible=0;dropTarget=0;points=[[0,0.5],[1,0.5]];portConstraint=eastwest;top=0;left=0;right=0;bottom=1;" parent="qdoZ0_azvyJZ9i20PAHD-230" vertex="1">
          <mxGeometry y="30" width="180" height="30" as="geometry" />
        </mxCell>
        <mxCell id="qdoZ0_azvyJZ9i20PAHD-232" value="PK" style="shape=partialRectangle;connectable=0;fillColor=none;top=0;left=0;bottom=0;right=0;fontStyle=1;overflow=hidden;whiteSpace=wrap;html=1;" parent="qdoZ0_azvyJZ9i20PAHD-231" vertex="1">
          <mxGeometry width="30" height="30" as="geometry">
            <mxRectangle width="30" height="30" as="alternateBounds" />
          </mxGeometry>
        </mxCell>
        <mxCell id="qdoZ0_azvyJZ9i20PAHD-233" value="CourseID " style="shape=partialRectangle;connectable=0;fillColor=none;top=0;left=0;bottom=0;right=0;align=left;spacingLeft=6;fontStyle=5;overflow=hidden;whiteSpace=wrap;html=1;" parent="qdoZ0_azvyJZ9i20PAHD-231" vertex="1">
          <mxGeometry x="30" width="150" height="30" as="geometry">
            <mxRectangle width="150" height="30" as="alternateBounds" />
          </mxGeometry>
        </mxCell>
        <mxCell id="qdoZ0_azvyJZ9i20PAHD-234" value="" style="shape=tableRow;horizontal=0;startSize=0;swimlaneHead=0;swimlaneBody=0;fillColor=none;collapsible=0;dropTarget=0;points=[[0,0.5],[1,0.5]];portConstraint=eastwest;top=0;left=0;right=0;bottom=0;" parent="qdoZ0_azvyJZ9i20PAHD-230" vertex="1">
          <mxGeometry y="60" width="180" height="30" as="geometry" />
        </mxCell>
        <mxCell id="qdoZ0_azvyJZ9i20PAHD-235" value="" style="shape=partialRectangle;connectable=0;fillColor=none;top=0;left=0;bottom=0;right=0;editable=1;overflow=hidden;whiteSpace=wrap;html=1;" parent="qdoZ0_azvyJZ9i20PAHD-234" vertex="1">
          <mxGeometry width="30" height="30" as="geometry">
            <mxRectangle width="30" height="30" as="alternateBounds" />
          </mxGeometry>
        </mxCell>
        <mxCell id="qdoZ0_azvyJZ9i20PAHD-236" value="CourseName" style="shape=partialRectangle;connectable=0;fillColor=none;top=0;left=0;bottom=0;right=0;align=left;spacingLeft=6;overflow=hidden;whiteSpace=wrap;html=1;" parent="qdoZ0_azvyJZ9i20PAHD-234" vertex="1">
          <mxGeometry x="30" width="150" height="30" as="geometry">
            <mxRectangle width="150" height="30" as="alternateBounds" />
          </mxGeometry>
        </mxCell>
        <mxCell id="qdoZ0_azvyJZ9i20PAHD-237" value="" style="shape=tableRow;horizontal=0;startSize=0;swimlaneHead=0;swimlaneBody=0;fillColor=none;collapsible=0;dropTarget=0;points=[[0,0.5],[1,0.5]];portConstraint=eastwest;top=0;left=0;right=0;bottom=0;" parent="qdoZ0_azvyJZ9i20PAHD-230" vertex="1">
          <mxGeometry y="90" width="180" height="30" as="geometry" />
        </mxCell>
        <mxCell id="qdoZ0_azvyJZ9i20PAHD-238" value="" style="shape=partialRectangle;connectable=0;fillColor=none;top=0;left=0;bottom=0;right=0;editable=1;overflow=hidden;whiteSpace=wrap;html=1;" parent="qdoZ0_azvyJZ9i20PAHD-237" vertex="1">
          <mxGeometry width="30" height="30" as="geometry">
            <mxRectangle width="30" height="30" as="alternateBounds" />
          </mxGeometry>
        </mxCell>
        <mxCell id="qdoZ0_azvyJZ9i20PAHD-239" value="Description" style="shape=partialRectangle;connectable=0;fillColor=none;top=0;left=0;bottom=0;right=0;align=left;spacingLeft=6;overflow=hidden;whiteSpace=wrap;html=1;" parent="qdoZ0_azvyJZ9i20PAHD-237" vertex="1">
          <mxGeometry x="30" width="150" height="30" as="geometry">
            <mxRectangle width="150" height="30" as="alternateBounds" />
          </mxGeometry>
        </mxCell>
        <mxCell id="qdoZ0_azvyJZ9i20PAHD-240" value="" style="shape=tableRow;horizontal=0;startSize=0;swimlaneHead=0;swimlaneBody=0;fillColor=none;collapsible=0;dropTarget=0;points=[[0,0.5],[1,0.5]];portConstraint=eastwest;top=0;left=0;right=0;bottom=0;" parent="qdoZ0_azvyJZ9i20PAHD-230" vertex="1">
          <mxGeometry y="120" width="180" height="30" as="geometry" />
        </mxCell>
        <mxCell id="qdoZ0_azvyJZ9i20PAHD-241" value="" style="shape=partialRectangle;connectable=0;fillColor=none;top=0;left=0;bottom=0;right=0;editable=1;overflow=hidden;whiteSpace=wrap;html=1;" parent="qdoZ0_azvyJZ9i20PAHD-240" vertex="1">
          <mxGeometry width="30" height="30" as="geometry">
            <mxRectangle width="30" height="30" as="alternateBounds" />
          </mxGeometry>
        </mxCell>
        <mxCell id="qdoZ0_azvyJZ9i20PAHD-242" value="MaxDegree" style="shape=partialRectangle;connectable=0;fillColor=none;top=0;left=0;bottom=0;right=0;align=left;spacingLeft=6;overflow=hidden;whiteSpace=wrap;html=1;" parent="qdoZ0_azvyJZ9i20PAHD-240" vertex="1">
          <mxGeometry x="30" width="150" height="30" as="geometry">
            <mxRectangle width="150" height="30" as="alternateBounds" />
          </mxGeometry>
        </mxCell>
        <mxCell id="qdoZ0_azvyJZ9i20PAHD-247" style="shape=tableRow;horizontal=0;startSize=0;swimlaneHead=0;swimlaneBody=0;fillColor=none;collapsible=0;dropTarget=0;points=[[0,0.5],[1,0.5]];portConstraint=eastwest;top=0;left=0;right=0;bottom=0;" parent="qdoZ0_azvyJZ9i20PAHD-230" vertex="1">
          <mxGeometry y="150" width="180" height="20" as="geometry" />
        </mxCell>
        <mxCell id="qdoZ0_azvyJZ9i20PAHD-248" style="shape=partialRectangle;connectable=0;fillColor=none;top=0;left=0;bottom=0;right=0;editable=1;overflow=hidden;whiteSpace=wrap;html=1;" parent="qdoZ0_azvyJZ9i20PAHD-247" vertex="1">
          <mxGeometry width="30" height="20" as="geometry">
            <mxRectangle width="30" height="20" as="alternateBounds" />
          </mxGeometry>
        </mxCell>
        <mxCell id="qdoZ0_azvyJZ9i20PAHD-249" value="MinDegree" style="shape=partialRectangle;connectable=0;fillColor=none;top=0;left=0;bottom=0;right=0;align=left;spacingLeft=6;overflow=hidden;whiteSpace=wrap;html=1;" parent="qdoZ0_azvyJZ9i20PAHD-247" vertex="1">
          <mxGeometry x="30" width="150" height="20" as="geometry">
            <mxRectangle width="150" height="20" as="alternateBounds" />
          </mxGeometry>
        </mxCell>
        <mxCell id="qdoZ0_azvyJZ9i20PAHD-256" style="shape=tableRow;horizontal=0;startSize=0;swimlaneHead=0;swimlaneBody=0;fillColor=none;collapsible=0;dropTarget=0;points=[[0,0.5],[1,0.5]];portConstraint=eastwest;top=0;left=0;right=0;bottom=0;" parent="qdoZ0_azvyJZ9i20PAHD-230" vertex="1">
          <mxGeometry y="170" width="180" height="21" as="geometry" />
        </mxCell>
        <mxCell id="qdoZ0_azvyJZ9i20PAHD-257" value="FK" style="shape=partialRectangle;connectable=0;fillColor=none;top=0;left=0;bottom=0;right=0;editable=1;overflow=hidden;whiteSpace=wrap;html=1;" parent="qdoZ0_azvyJZ9i20PAHD-256" vertex="1">
          <mxGeometry width="30" height="21" as="geometry">
            <mxRectangle width="30" height="21" as="alternateBounds" />
          </mxGeometry>
        </mxCell>
        <mxCell id="qdoZ0_azvyJZ9i20PAHD-258" value="InstructorID " style="shape=partialRectangle;connectable=0;fillColor=none;top=0;left=0;bottom=0;right=0;align=left;spacingLeft=6;overflow=hidden;whiteSpace=wrap;html=1;" parent="qdoZ0_azvyJZ9i20PAHD-256" vertex="1">
          <mxGeometry x="30" width="150" height="21" as="geometry">
            <mxRectangle width="150" height="21" as="alternateBounds" />
          </mxGeometry>
        </mxCell>
        <mxCell id="qdoZ0_azvyJZ9i20PAHD-259" value="Instructor " style="shape=table;startSize=30;container=1;collapsible=1;childLayout=tableLayout;fixedRows=1;rowLines=0;fontStyle=1;align=center;resizeLast=1;html=1;" parent="1" vertex="1">
          <mxGeometry x="1868" y="636" width="180" height="180" as="geometry" />
        </mxCell>
        <mxCell id="qdoZ0_azvyJZ9i20PAHD-260" value="" style="shape=tableRow;horizontal=0;startSize=0;swimlaneHead=0;swimlaneBody=0;fillColor=none;collapsible=0;dropTarget=0;points=[[0,0.5],[1,0.5]];portConstraint=eastwest;top=0;left=0;right=0;bottom=1;" parent="qdoZ0_azvyJZ9i20PAHD-259" vertex="1">
          <mxGeometry y="30" width="180" height="30" as="geometry" />
        </mxCell>
        <mxCell id="qdoZ0_azvyJZ9i20PAHD-261" value="PK" style="shape=partialRectangle;connectable=0;fillColor=none;top=0;left=0;bottom=0;right=0;fontStyle=1;overflow=hidden;whiteSpace=wrap;html=1;" parent="qdoZ0_azvyJZ9i20PAHD-260" vertex="1">
          <mxGeometry width="30" height="30" as="geometry">
            <mxRectangle width="30" height="30" as="alternateBounds" />
          </mxGeometry>
        </mxCell>
        <mxCell id="qdoZ0_azvyJZ9i20PAHD-262" value="InstructorID " style="shape=partialRectangle;connectable=0;fillColor=none;top=0;left=0;bottom=0;right=0;align=left;spacingLeft=6;fontStyle=5;overflow=hidden;whiteSpace=wrap;html=1;" parent="qdoZ0_azvyJZ9i20PAHD-260" vertex="1">
          <mxGeometry x="30" width="150" height="30" as="geometry">
            <mxRectangle width="150" height="30" as="alternateBounds" />
          </mxGeometry>
        </mxCell>
        <mxCell id="qdoZ0_azvyJZ9i20PAHD-263" value="" style="shape=tableRow;horizontal=0;startSize=0;swimlaneHead=0;swimlaneBody=0;fillColor=none;collapsible=0;dropTarget=0;points=[[0,0.5],[1,0.5]];portConstraint=eastwest;top=0;left=0;right=0;bottom=0;" parent="qdoZ0_azvyJZ9i20PAHD-259" vertex="1">
          <mxGeometry y="60" width="180" height="30" as="geometry" />
        </mxCell>
        <mxCell id="qdoZ0_azvyJZ9i20PAHD-264" value="" style="shape=partialRectangle;connectable=0;fillColor=none;top=0;left=0;bottom=0;right=0;editable=1;overflow=hidden;whiteSpace=wrap;html=1;" parent="qdoZ0_azvyJZ9i20PAHD-263" vertex="1">
          <mxGeometry width="30" height="30" as="geometry">
            <mxRectangle width="30" height="30" as="alternateBounds" />
          </mxGeometry>
        </mxCell>
        <mxCell id="qdoZ0_azvyJZ9i20PAHD-265" value="InstructorName" style="shape=partialRectangle;connectable=0;fillColor=none;top=0;left=0;bottom=0;right=0;align=left;spacingLeft=6;overflow=hidden;whiteSpace=wrap;html=1;" parent="qdoZ0_azvyJZ9i20PAHD-263" vertex="1">
          <mxGeometry x="30" width="150" height="30" as="geometry">
            <mxRectangle width="150" height="30" as="alternateBounds" />
          </mxGeometry>
        </mxCell>
        <mxCell id="qdoZ0_azvyJZ9i20PAHD-492" style="shape=tableRow;horizontal=0;startSize=0;swimlaneHead=0;swimlaneBody=0;fillColor=none;collapsible=0;dropTarget=0;points=[[0,0.5],[1,0.5]];portConstraint=eastwest;top=0;left=0;right=0;bottom=0;" parent="qdoZ0_azvyJZ9i20PAHD-259" vertex="1">
          <mxGeometry y="90" width="180" height="30" as="geometry" />
        </mxCell>
        <mxCell id="qdoZ0_azvyJZ9i20PAHD-493" style="shape=partialRectangle;connectable=0;fillColor=none;top=0;left=0;bottom=0;right=0;editable=1;overflow=hidden;whiteSpace=wrap;html=1;" parent="qdoZ0_azvyJZ9i20PAHD-492" vertex="1">
          <mxGeometry width="30" height="30" as="geometry">
            <mxRectangle width="30" height="30" as="alternateBounds" />
          </mxGeometry>
        </mxCell>
        <mxCell id="qdoZ0_azvyJZ9i20PAHD-494" value="Age" style="shape=partialRectangle;connectable=0;fillColor=none;top=0;left=0;bottom=0;right=0;align=left;spacingLeft=6;overflow=hidden;whiteSpace=wrap;html=1;" parent="qdoZ0_azvyJZ9i20PAHD-492" vertex="1">
          <mxGeometry x="30" width="150" height="30" as="geometry">
            <mxRectangle width="150" height="30" as="alternateBounds" />
          </mxGeometry>
        </mxCell>
        <mxCell id="qdoZ0_azvyJZ9i20PAHD-495" style="shape=tableRow;horizontal=0;startSize=0;swimlaneHead=0;swimlaneBody=0;fillColor=none;collapsible=0;dropTarget=0;points=[[0,0.5],[1,0.5]];portConstraint=eastwest;top=0;left=0;right=0;bottom=0;" parent="qdoZ0_azvyJZ9i20PAHD-259" vertex="1">
          <mxGeometry y="120" width="180" height="30" as="geometry" />
        </mxCell>
        <mxCell id="qdoZ0_azvyJZ9i20PAHD-496" style="shape=partialRectangle;connectable=0;fillColor=none;top=0;left=0;bottom=0;right=0;editable=1;overflow=hidden;whiteSpace=wrap;html=1;" parent="qdoZ0_azvyJZ9i20PAHD-495" vertex="1">
          <mxGeometry width="30" height="30" as="geometry">
            <mxRectangle width="30" height="30" as="alternateBounds" />
          </mxGeometry>
        </mxCell>
        <mxCell id="qdoZ0_azvyJZ9i20PAHD-497" value="Address" style="shape=partialRectangle;connectable=0;fillColor=none;top=0;left=0;bottom=0;right=0;align=left;spacingLeft=6;overflow=hidden;whiteSpace=wrap;html=1;" parent="qdoZ0_azvyJZ9i20PAHD-495" vertex="1">
          <mxGeometry x="30" width="150" height="30" as="geometry">
            <mxRectangle width="150" height="30" as="alternateBounds" />
          </mxGeometry>
        </mxCell>
        <mxCell id="qdoZ0_azvyJZ9i20PAHD-498" style="shape=tableRow;horizontal=0;startSize=0;swimlaneHead=0;swimlaneBody=0;fillColor=none;collapsible=0;dropTarget=0;points=[[0,0.5],[1,0.5]];portConstraint=eastwest;top=0;left=0;right=0;bottom=0;" parent="qdoZ0_azvyJZ9i20PAHD-259" vertex="1">
          <mxGeometry y="150" width="180" height="30" as="geometry" />
        </mxCell>
        <mxCell id="qdoZ0_azvyJZ9i20PAHD-499" style="shape=partialRectangle;connectable=0;fillColor=none;top=0;left=0;bottom=0;right=0;editable=1;overflow=hidden;whiteSpace=wrap;html=1;" parent="qdoZ0_azvyJZ9i20PAHD-498" vertex="1">
          <mxGeometry width="30" height="30" as="geometry">
            <mxRectangle width="30" height="30" as="alternateBounds" />
          </mxGeometry>
        </mxCell>
        <mxCell id="qdoZ0_azvyJZ9i20PAHD-500" value="Phone" style="shape=partialRectangle;connectable=0;fillColor=none;top=0;left=0;bottom=0;right=0;align=left;spacingLeft=6;overflow=hidden;whiteSpace=wrap;html=1;" parent="qdoZ0_azvyJZ9i20PAHD-498" vertex="1">
          <mxGeometry x="30" width="150" height="30" as="geometry">
            <mxRectangle width="150" height="30" as="alternateBounds" />
          </mxGeometry>
        </mxCell>
        <mxCell id="qdoZ0_azvyJZ9i20PAHD-275" value="Student " style="shape=table;startSize=30;container=1;collapsible=1;childLayout=tableLayout;fixedRows=1;rowLines=0;fontStyle=1;align=center;resizeLast=1;html=1;" parent="1" vertex="1">
          <mxGeometry x="2104" y="588" width="180" height="210" as="geometry" />
        </mxCell>
        <mxCell id="qdoZ0_azvyJZ9i20PAHD-276" value="" style="shape=tableRow;horizontal=0;startSize=0;swimlaneHead=0;swimlaneBody=0;fillColor=none;collapsible=0;dropTarget=0;points=[[0,0.5],[1,0.5]];portConstraint=eastwest;top=0;left=0;right=0;bottom=1;" parent="qdoZ0_azvyJZ9i20PAHD-275" vertex="1">
          <mxGeometry y="30" width="180" height="30" as="geometry" />
        </mxCell>
        <mxCell id="qdoZ0_azvyJZ9i20PAHD-277" value="PK" style="shape=partialRectangle;connectable=0;fillColor=none;top=0;left=0;bottom=0;right=0;fontStyle=1;overflow=hidden;whiteSpace=wrap;html=1;" parent="qdoZ0_azvyJZ9i20PAHD-276" vertex="1">
          <mxGeometry width="30" height="30" as="geometry">
            <mxRectangle width="30" height="30" as="alternateBounds" />
          </mxGeometry>
        </mxCell>
        <mxCell id="qdoZ0_azvyJZ9i20PAHD-278" value="StudentID " style="shape=partialRectangle;connectable=0;fillColor=none;top=0;left=0;bottom=0;right=0;align=left;spacingLeft=6;fontStyle=5;overflow=hidden;whiteSpace=wrap;html=1;" parent="qdoZ0_azvyJZ9i20PAHD-276" vertex="1">
          <mxGeometry x="30" width="150" height="30" as="geometry">
            <mxRectangle width="150" height="30" as="alternateBounds" />
          </mxGeometry>
        </mxCell>
        <mxCell id="qdoZ0_azvyJZ9i20PAHD-279" value="" style="shape=tableRow;horizontal=0;startSize=0;swimlaneHead=0;swimlaneBody=0;fillColor=none;collapsible=0;dropTarget=0;points=[[0,0.5],[1,0.5]];portConstraint=eastwest;top=0;left=0;right=0;bottom=0;" parent="qdoZ0_azvyJZ9i20PAHD-275" vertex="1">
          <mxGeometry y="60" width="180" height="30" as="geometry" />
        </mxCell>
        <mxCell id="qdoZ0_azvyJZ9i20PAHD-280" value="" style="shape=partialRectangle;connectable=0;fillColor=none;top=0;left=0;bottom=0;right=0;editable=1;overflow=hidden;whiteSpace=wrap;html=1;" parent="qdoZ0_azvyJZ9i20PAHD-279" vertex="1">
          <mxGeometry width="30" height="30" as="geometry">
            <mxRectangle width="30" height="30" as="alternateBounds" />
          </mxGeometry>
        </mxCell>
        <mxCell id="qdoZ0_azvyJZ9i20PAHD-281" value="StudentName" style="shape=partialRectangle;connectable=0;fillColor=none;top=0;left=0;bottom=0;right=0;align=left;spacingLeft=6;overflow=hidden;whiteSpace=wrap;html=1;" parent="qdoZ0_azvyJZ9i20PAHD-279" vertex="1">
          <mxGeometry x="30" width="150" height="30" as="geometry">
            <mxRectangle width="150" height="30" as="alternateBounds" />
          </mxGeometry>
        </mxCell>
        <mxCell id="qdoZ0_azvyJZ9i20PAHD-480" style="shape=tableRow;horizontal=0;startSize=0;swimlaneHead=0;swimlaneBody=0;fillColor=none;collapsible=0;dropTarget=0;points=[[0,0.5],[1,0.5]];portConstraint=eastwest;top=0;left=0;right=0;bottom=0;" parent="qdoZ0_azvyJZ9i20PAHD-275" vertex="1">
          <mxGeometry y="90" width="180" height="30" as="geometry" />
        </mxCell>
        <mxCell id="qdoZ0_azvyJZ9i20PAHD-481" style="shape=partialRectangle;connectable=0;fillColor=none;top=0;left=0;bottom=0;right=0;editable=1;overflow=hidden;whiteSpace=wrap;html=1;" parent="qdoZ0_azvyJZ9i20PAHD-480" vertex="1">
          <mxGeometry width="30" height="30" as="geometry">
            <mxRectangle width="30" height="30" as="alternateBounds" />
          </mxGeometry>
        </mxCell>
        <mxCell id="qdoZ0_azvyJZ9i20PAHD-482" value="Phone" style="shape=partialRectangle;connectable=0;fillColor=none;top=0;left=0;bottom=0;right=0;align=left;spacingLeft=6;overflow=hidden;whiteSpace=wrap;html=1;" parent="qdoZ0_azvyJZ9i20PAHD-480" vertex="1">
          <mxGeometry x="30" width="150" height="30" as="geometry">
            <mxRectangle width="150" height="30" as="alternateBounds" />
          </mxGeometry>
        </mxCell>
        <mxCell id="qdoZ0_azvyJZ9i20PAHD-486" style="shape=tableRow;horizontal=0;startSize=0;swimlaneHead=0;swimlaneBody=0;fillColor=none;collapsible=0;dropTarget=0;points=[[0,0.5],[1,0.5]];portConstraint=eastwest;top=0;left=0;right=0;bottom=0;" parent="qdoZ0_azvyJZ9i20PAHD-275" vertex="1">
          <mxGeometry y="120" width="180" height="30" as="geometry" />
        </mxCell>
        <mxCell id="qdoZ0_azvyJZ9i20PAHD-487" style="shape=partialRectangle;connectable=0;fillColor=none;top=0;left=0;bottom=0;right=0;editable=1;overflow=hidden;whiteSpace=wrap;html=1;" parent="qdoZ0_azvyJZ9i20PAHD-486" vertex="1">
          <mxGeometry width="30" height="30" as="geometry">
            <mxRectangle width="30" height="30" as="alternateBounds" />
          </mxGeometry>
        </mxCell>
        <mxCell id="qdoZ0_azvyJZ9i20PAHD-488" value="Age" style="shape=partialRectangle;connectable=0;fillColor=none;top=0;left=0;bottom=0;right=0;align=left;spacingLeft=6;overflow=hidden;whiteSpace=wrap;html=1;" parent="qdoZ0_azvyJZ9i20PAHD-486" vertex="1">
          <mxGeometry x="30" width="150" height="30" as="geometry">
            <mxRectangle width="150" height="30" as="alternateBounds" />
          </mxGeometry>
        </mxCell>
        <mxCell id="qdoZ0_azvyJZ9i20PAHD-489" style="shape=tableRow;horizontal=0;startSize=0;swimlaneHead=0;swimlaneBody=0;fillColor=none;collapsible=0;dropTarget=0;points=[[0,0.5],[1,0.5]];portConstraint=eastwest;top=0;left=0;right=0;bottom=0;" parent="qdoZ0_azvyJZ9i20PAHD-275" vertex="1">
          <mxGeometry y="150" width="180" height="30" as="geometry" />
        </mxCell>
        <mxCell id="qdoZ0_azvyJZ9i20PAHD-490" style="shape=partialRectangle;connectable=0;fillColor=none;top=0;left=0;bottom=0;right=0;editable=1;overflow=hidden;whiteSpace=wrap;html=1;" parent="qdoZ0_azvyJZ9i20PAHD-489" vertex="1">
          <mxGeometry width="30" height="30" as="geometry">
            <mxRectangle width="30" height="30" as="alternateBounds" />
          </mxGeometry>
        </mxCell>
        <mxCell id="qdoZ0_azvyJZ9i20PAHD-491" value="Address" style="shape=partialRectangle;connectable=0;fillColor=none;top=0;left=0;bottom=0;right=0;align=left;spacingLeft=6;overflow=hidden;whiteSpace=wrap;html=1;" parent="qdoZ0_azvyJZ9i20PAHD-489" vertex="1">
          <mxGeometry x="30" width="150" height="30" as="geometry">
            <mxRectangle width="150" height="30" as="alternateBounds" />
          </mxGeometry>
        </mxCell>
        <mxCell id="IzAvOUgwbSu5JqP0lJlk-20" style="shape=tableRow;horizontal=0;startSize=0;swimlaneHead=0;swimlaneBody=0;fillColor=none;collapsible=0;dropTarget=0;points=[[0,0.5],[1,0.5]];portConstraint=eastwest;top=0;left=0;right=0;bottom=0;" parent="qdoZ0_azvyJZ9i20PAHD-275" vertex="1">
          <mxGeometry y="180" width="180" height="30" as="geometry" />
        </mxCell>
        <mxCell id="IzAvOUgwbSu5JqP0lJlk-21" value="FK" style="shape=partialRectangle;connectable=0;fillColor=none;top=0;left=0;bottom=0;right=0;editable=1;overflow=hidden;whiteSpace=wrap;html=1;" parent="IzAvOUgwbSu5JqP0lJlk-20" vertex="1">
          <mxGeometry width="30" height="30" as="geometry">
            <mxRectangle width="30" height="30" as="alternateBounds" />
          </mxGeometry>
        </mxCell>
        <mxCell id="IzAvOUgwbSu5JqP0lJlk-22" value="IntakeID" style="shape=partialRectangle;connectable=0;fillColor=none;top=0;left=0;bottom=0;right=0;align=left;spacingLeft=6;overflow=hidden;whiteSpace=wrap;html=1;" parent="IzAvOUgwbSu5JqP0lJlk-20" vertex="1">
          <mxGeometry x="30" width="150" height="30" as="geometry">
            <mxRectangle width="150" height="30" as="alternateBounds" />
          </mxGeometry>
        </mxCell>
        <mxCell id="qdoZ0_azvyJZ9i20PAHD-285" value="Question " style="shape=table;startSize=30;container=1;collapsible=1;childLayout=tableLayout;fixedRows=1;rowLines=0;fontStyle=1;align=center;resizeLast=1;html=1;" parent="1" vertex="1">
          <mxGeometry x="1615" y="636" width="180" height="210" as="geometry" />
        </mxCell>
        <mxCell id="qdoZ0_azvyJZ9i20PAHD-286" value="" style="shape=tableRow;horizontal=0;startSize=0;swimlaneHead=0;swimlaneBody=0;fillColor=none;collapsible=0;dropTarget=0;points=[[0,0.5],[1,0.5]];portConstraint=eastwest;top=0;left=0;right=0;bottom=1;" parent="qdoZ0_azvyJZ9i20PAHD-285" vertex="1">
          <mxGeometry y="30" width="180" height="30" as="geometry" />
        </mxCell>
        <mxCell id="qdoZ0_azvyJZ9i20PAHD-287" value="PK" style="shape=partialRectangle;connectable=0;fillColor=none;top=0;left=0;bottom=0;right=0;fontStyle=1;overflow=hidden;whiteSpace=wrap;html=1;" parent="qdoZ0_azvyJZ9i20PAHD-286" vertex="1">
          <mxGeometry width="30" height="30" as="geometry">
            <mxRectangle width="30" height="30" as="alternateBounds" />
          </mxGeometry>
        </mxCell>
        <mxCell id="qdoZ0_azvyJZ9i20PAHD-288" value="QuestionID " style="shape=partialRectangle;connectable=0;fillColor=none;top=0;left=0;bottom=0;right=0;align=left;spacingLeft=6;fontStyle=5;overflow=hidden;whiteSpace=wrap;html=1;" parent="qdoZ0_azvyJZ9i20PAHD-286" vertex="1">
          <mxGeometry x="30" width="150" height="30" as="geometry">
            <mxRectangle width="150" height="30" as="alternateBounds" />
          </mxGeometry>
        </mxCell>
        <mxCell id="qdoZ0_azvyJZ9i20PAHD-289" value="" style="shape=tableRow;horizontal=0;startSize=0;swimlaneHead=0;swimlaneBody=0;fillColor=none;collapsible=0;dropTarget=0;points=[[0,0.5],[1,0.5]];portConstraint=eastwest;top=0;left=0;right=0;bottom=0;" parent="qdoZ0_azvyJZ9i20PAHD-285" vertex="1">
          <mxGeometry y="60" width="180" height="30" as="geometry" />
        </mxCell>
        <mxCell id="qdoZ0_azvyJZ9i20PAHD-290" value="" style="shape=partialRectangle;connectable=0;fillColor=none;top=0;left=0;bottom=0;right=0;editable=1;overflow=hidden;whiteSpace=wrap;html=1;" parent="qdoZ0_azvyJZ9i20PAHD-289" vertex="1">
          <mxGeometry width="30" height="30" as="geometry">
            <mxRectangle width="30" height="30" as="alternateBounds" />
          </mxGeometry>
        </mxCell>
        <mxCell id="qdoZ0_azvyJZ9i20PAHD-291" value="Type " style="shape=partialRectangle;connectable=0;fillColor=none;top=0;left=0;bottom=0;right=0;align=left;spacingLeft=6;overflow=hidden;whiteSpace=wrap;html=1;" parent="qdoZ0_azvyJZ9i20PAHD-289" vertex="1">
          <mxGeometry x="30" width="150" height="30" as="geometry">
            <mxRectangle width="150" height="30" as="alternateBounds" />
          </mxGeometry>
        </mxCell>
        <mxCell id="qdoZ0_azvyJZ9i20PAHD-292" value="" style="shape=tableRow;horizontal=0;startSize=0;swimlaneHead=0;swimlaneBody=0;fillColor=none;collapsible=0;dropTarget=0;points=[[0,0.5],[1,0.5]];portConstraint=eastwest;top=0;left=0;right=0;bottom=0;" parent="qdoZ0_azvyJZ9i20PAHD-285" vertex="1">
          <mxGeometry y="90" width="180" height="30" as="geometry" />
        </mxCell>
        <mxCell id="qdoZ0_azvyJZ9i20PAHD-293" value="" style="shape=partialRectangle;connectable=0;fillColor=none;top=0;left=0;bottom=0;right=0;editable=1;overflow=hidden;whiteSpace=wrap;html=1;" parent="qdoZ0_azvyJZ9i20PAHD-292" vertex="1">
          <mxGeometry width="30" height="30" as="geometry">
            <mxRectangle width="30" height="30" as="alternateBounds" />
          </mxGeometry>
        </mxCell>
        <mxCell id="qdoZ0_azvyJZ9i20PAHD-294" value="CorrectAnswer " style="shape=partialRectangle;connectable=0;fillColor=none;top=0;left=0;bottom=0;right=0;align=left;spacingLeft=6;overflow=hidden;whiteSpace=wrap;html=1;" parent="qdoZ0_azvyJZ9i20PAHD-292" vertex="1">
          <mxGeometry x="30" width="150" height="30" as="geometry">
            <mxRectangle width="150" height="30" as="alternateBounds" />
          </mxGeometry>
        </mxCell>
        <mxCell id="qdoZ0_azvyJZ9i20PAHD-425" style="shape=tableRow;horizontal=0;startSize=0;swimlaneHead=0;swimlaneBody=0;fillColor=none;collapsible=0;dropTarget=0;points=[[0,0.5],[1,0.5]];portConstraint=eastwest;top=0;left=0;right=0;bottom=0;" parent="qdoZ0_azvyJZ9i20PAHD-285" vertex="1">
          <mxGeometry y="120" width="180" height="30" as="geometry" />
        </mxCell>
        <mxCell id="qdoZ0_azvyJZ9i20PAHD-426" style="shape=partialRectangle;connectable=0;fillColor=none;top=0;left=0;bottom=0;right=0;editable=1;overflow=hidden;whiteSpace=wrap;html=1;" parent="qdoZ0_azvyJZ9i20PAHD-425" vertex="1">
          <mxGeometry width="30" height="30" as="geometry">
            <mxRectangle width="30" height="30" as="alternateBounds" />
          </mxGeometry>
        </mxCell>
        <mxCell id="qdoZ0_azvyJZ9i20PAHD-427" value="QuestionText" style="shape=partialRectangle;connectable=0;fillColor=none;top=0;left=0;bottom=0;right=0;align=left;spacingLeft=6;overflow=hidden;whiteSpace=wrap;html=1;" parent="qdoZ0_azvyJZ9i20PAHD-425" vertex="1">
          <mxGeometry x="30" width="150" height="30" as="geometry">
            <mxRectangle width="150" height="30" as="alternateBounds" />
          </mxGeometry>
        </mxCell>
        <mxCell id="CQ1ETBujkcYqgWfwqwM2-14" style="shape=tableRow;horizontal=0;startSize=0;swimlaneHead=0;swimlaneBody=0;fillColor=none;collapsible=0;dropTarget=0;points=[[0,0.5],[1,0.5]];portConstraint=eastwest;top=0;left=0;right=0;bottom=0;" parent="qdoZ0_azvyJZ9i20PAHD-285" vertex="1">
          <mxGeometry y="150" width="180" height="30" as="geometry" />
        </mxCell>
        <mxCell id="CQ1ETBujkcYqgWfwqwM2-15" style="shape=partialRectangle;connectable=0;fillColor=none;top=0;left=0;bottom=0;right=0;editable=1;overflow=hidden;whiteSpace=wrap;html=1;" parent="CQ1ETBujkcYqgWfwqwM2-14" vertex="1">
          <mxGeometry width="30" height="30" as="geometry">
            <mxRectangle width="30" height="30" as="alternateBounds" />
          </mxGeometry>
        </mxCell>
        <mxCell id="CQ1ETBujkcYqgWfwqwM2-16" value="TextKeywords" style="shape=partialRectangle;connectable=0;fillColor=none;top=0;left=0;bottom=0;right=0;align=left;spacingLeft=6;overflow=hidden;whiteSpace=wrap;html=1;" parent="CQ1ETBujkcYqgWfwqwM2-14" vertex="1">
          <mxGeometry x="30" width="150" height="30" as="geometry">
            <mxRectangle width="150" height="30" as="alternateBounds" />
          </mxGeometry>
        </mxCell>
        <mxCell id="3so2MiiZi--uFWkapN8Z-8" style="shape=tableRow;horizontal=0;startSize=0;swimlaneHead=0;swimlaneBody=0;fillColor=none;collapsible=0;dropTarget=0;points=[[0,0.5],[1,0.5]];portConstraint=eastwest;top=0;left=0;right=0;bottom=0;" parent="qdoZ0_azvyJZ9i20PAHD-285" vertex="1">
          <mxGeometry y="180" width="180" height="30" as="geometry" />
        </mxCell>
        <mxCell id="3so2MiiZi--uFWkapN8Z-9" value="FK" style="shape=partialRectangle;connectable=0;fillColor=none;top=0;left=0;bottom=0;right=0;editable=1;overflow=hidden;whiteSpace=wrap;html=1;" parent="3so2MiiZi--uFWkapN8Z-8" vertex="1">
          <mxGeometry width="30" height="30" as="geometry">
            <mxRectangle width="30" height="30" as="alternateBounds" />
          </mxGeometry>
        </mxCell>
        <mxCell id="3so2MiiZi--uFWkapN8Z-10" value="CourseID" style="shape=partialRectangle;connectable=0;fillColor=none;top=0;left=0;bottom=0;right=0;align=left;spacingLeft=6;overflow=hidden;whiteSpace=wrap;html=1;" parent="3so2MiiZi--uFWkapN8Z-8" vertex="1">
          <mxGeometry x="30" width="150" height="30" as="geometry">
            <mxRectangle width="150" height="30" as="alternateBounds" />
          </mxGeometry>
        </mxCell>
        <mxCell id="qdoZ0_azvyJZ9i20PAHD-300" value="Exam " style="shape=table;startSize=30;container=1;collapsible=1;childLayout=tableLayout;fixedRows=1;rowLines=0;fontStyle=1;align=center;resizeLast=1;html=1;" parent="1" vertex="1">
          <mxGeometry x="1615" y="887" width="180" height="270" as="geometry" />
        </mxCell>
        <mxCell id="qdoZ0_azvyJZ9i20PAHD-301" value="" style="shape=tableRow;horizontal=0;startSize=0;swimlaneHead=0;swimlaneBody=0;fillColor=none;collapsible=0;dropTarget=0;points=[[0,0.5],[1,0.5]];portConstraint=eastwest;top=0;left=0;right=0;bottom=1;" parent="qdoZ0_azvyJZ9i20PAHD-300" vertex="1">
          <mxGeometry y="30" width="180" height="30" as="geometry" />
        </mxCell>
        <mxCell id="qdoZ0_azvyJZ9i20PAHD-302" value="PK" style="shape=partialRectangle;connectable=0;fillColor=none;top=0;left=0;bottom=0;right=0;fontStyle=1;overflow=hidden;whiteSpace=wrap;html=1;" parent="qdoZ0_azvyJZ9i20PAHD-301" vertex="1">
          <mxGeometry width="30" height="30" as="geometry">
            <mxRectangle width="30" height="30" as="alternateBounds" />
          </mxGeometry>
        </mxCell>
        <mxCell id="qdoZ0_azvyJZ9i20PAHD-303" value="ExamID " style="shape=partialRectangle;connectable=0;fillColor=none;top=0;left=0;bottom=0;right=0;align=left;spacingLeft=6;fontStyle=5;overflow=hidden;whiteSpace=wrap;html=1;" parent="qdoZ0_azvyJZ9i20PAHD-301" vertex="1">
          <mxGeometry x="30" width="150" height="30" as="geometry">
            <mxRectangle width="150" height="30" as="alternateBounds" />
          </mxGeometry>
        </mxCell>
        <mxCell id="qdoZ0_azvyJZ9i20PAHD-304" value="" style="shape=tableRow;horizontal=0;startSize=0;swimlaneHead=0;swimlaneBody=0;fillColor=none;collapsible=0;dropTarget=0;points=[[0,0.5],[1,0.5]];portConstraint=eastwest;top=0;left=0;right=0;bottom=0;" parent="qdoZ0_azvyJZ9i20PAHD-300" vertex="1">
          <mxGeometry y="60" width="180" height="30" as="geometry" />
        </mxCell>
        <mxCell id="qdoZ0_azvyJZ9i20PAHD-305" value="" style="shape=partialRectangle;connectable=0;fillColor=none;top=0;left=0;bottom=0;right=0;editable=1;overflow=hidden;whiteSpace=wrap;html=1;" parent="qdoZ0_azvyJZ9i20PAHD-304" vertex="1">
          <mxGeometry width="30" height="30" as="geometry">
            <mxRectangle width="30" height="30" as="alternateBounds" />
          </mxGeometry>
        </mxCell>
        <mxCell id="qdoZ0_azvyJZ9i20PAHD-306" value="Type " style="shape=partialRectangle;connectable=0;fillColor=none;top=0;left=0;bottom=0;right=0;align=left;spacingLeft=6;overflow=hidden;whiteSpace=wrap;html=1;" parent="qdoZ0_azvyJZ9i20PAHD-304" vertex="1">
          <mxGeometry x="30" width="150" height="30" as="geometry">
            <mxRectangle width="150" height="30" as="alternateBounds" />
          </mxGeometry>
        </mxCell>
        <mxCell id="qdoZ0_azvyJZ9i20PAHD-323" style="shape=tableRow;horizontal=0;startSize=0;swimlaneHead=0;swimlaneBody=0;fillColor=none;collapsible=0;dropTarget=0;points=[[0,0.5],[1,0.5]];portConstraint=eastwest;top=0;left=0;right=0;bottom=0;" parent="qdoZ0_azvyJZ9i20PAHD-300" vertex="1">
          <mxGeometry y="90" width="180" height="30" as="geometry" />
        </mxCell>
        <mxCell id="qdoZ0_azvyJZ9i20PAHD-324" style="shape=partialRectangle;connectable=0;fillColor=none;top=0;left=0;bottom=0;right=0;editable=1;overflow=hidden;whiteSpace=wrap;html=1;" parent="qdoZ0_azvyJZ9i20PAHD-323" vertex="1">
          <mxGeometry width="30" height="30" as="geometry">
            <mxRectangle width="30" height="30" as="alternateBounds" />
          </mxGeometry>
        </mxCell>
        <mxCell id="qdoZ0_azvyJZ9i20PAHD-325" value="StartTime" style="shape=partialRectangle;connectable=0;fillColor=none;top=0;left=0;bottom=0;right=0;align=left;spacingLeft=6;overflow=hidden;whiteSpace=wrap;html=1;" parent="qdoZ0_azvyJZ9i20PAHD-323" vertex="1">
          <mxGeometry x="30" width="150" height="30" as="geometry">
            <mxRectangle width="150" height="30" as="alternateBounds" />
          </mxGeometry>
        </mxCell>
        <mxCell id="qdoZ0_azvyJZ9i20PAHD-326" style="shape=tableRow;horizontal=0;startSize=0;swimlaneHead=0;swimlaneBody=0;fillColor=none;collapsible=0;dropTarget=0;points=[[0,0.5],[1,0.5]];portConstraint=eastwest;top=0;left=0;right=0;bottom=0;" parent="qdoZ0_azvyJZ9i20PAHD-300" vertex="1">
          <mxGeometry y="120" width="180" height="30" as="geometry" />
        </mxCell>
        <mxCell id="qdoZ0_azvyJZ9i20PAHD-327" style="shape=partialRectangle;connectable=0;fillColor=none;top=0;left=0;bottom=0;right=0;editable=1;overflow=hidden;whiteSpace=wrap;html=1;" parent="qdoZ0_azvyJZ9i20PAHD-326" vertex="1">
          <mxGeometry width="30" height="30" as="geometry">
            <mxRectangle width="30" height="30" as="alternateBounds" />
          </mxGeometry>
        </mxCell>
        <mxCell id="qdoZ0_azvyJZ9i20PAHD-328" value="EndTime" style="shape=partialRectangle;connectable=0;fillColor=none;top=0;left=0;bottom=0;right=0;align=left;spacingLeft=6;overflow=hidden;whiteSpace=wrap;html=1;" parent="qdoZ0_azvyJZ9i20PAHD-326" vertex="1">
          <mxGeometry x="30" width="150" height="30" as="geometry">
            <mxRectangle width="150" height="30" as="alternateBounds" />
          </mxGeometry>
        </mxCell>
        <mxCell id="qdoZ0_azvyJZ9i20PAHD-329" style="shape=tableRow;horizontal=0;startSize=0;swimlaneHead=0;swimlaneBody=0;fillColor=none;collapsible=0;dropTarget=0;points=[[0,0.5],[1,0.5]];portConstraint=eastwest;top=0;left=0;right=0;bottom=0;" parent="qdoZ0_azvyJZ9i20PAHD-300" vertex="1">
          <mxGeometry y="150" width="180" height="30" as="geometry" />
        </mxCell>
        <mxCell id="qdoZ0_azvyJZ9i20PAHD-330" style="shape=partialRectangle;connectable=0;fillColor=none;top=0;left=0;bottom=0;right=0;editable=1;overflow=hidden;whiteSpace=wrap;html=1;" parent="qdoZ0_azvyJZ9i20PAHD-329" vertex="1">
          <mxGeometry width="30" height="30" as="geometry">
            <mxRectangle width="30" height="30" as="alternateBounds" />
          </mxGeometry>
        </mxCell>
        <mxCell id="qdoZ0_azvyJZ9i20PAHD-331" value="TotalTime" style="shape=partialRectangle;connectable=0;fillColor=none;top=0;left=0;bottom=0;right=0;align=left;spacingLeft=6;overflow=hidden;whiteSpace=wrap;html=1;" parent="qdoZ0_azvyJZ9i20PAHD-329" vertex="1">
          <mxGeometry x="30" width="150" height="30" as="geometry">
            <mxRectangle width="150" height="30" as="alternateBounds" />
          </mxGeometry>
        </mxCell>
        <mxCell id="qdoZ0_azvyJZ9i20PAHD-307" value="" style="shape=tableRow;horizontal=0;startSize=0;swimlaneHead=0;swimlaneBody=0;fillColor=none;collapsible=0;dropTarget=0;points=[[0,0.5],[1,0.5]];portConstraint=eastwest;top=0;left=0;right=0;bottom=0;" parent="qdoZ0_azvyJZ9i20PAHD-300" vertex="1">
          <mxGeometry y="180" width="180" height="30" as="geometry" />
        </mxCell>
        <mxCell id="qdoZ0_azvyJZ9i20PAHD-308" value="FK" style="shape=partialRectangle;connectable=0;fillColor=none;top=0;left=0;bottom=0;right=0;editable=1;overflow=hidden;whiteSpace=wrap;html=1;" parent="qdoZ0_azvyJZ9i20PAHD-307" vertex="1">
          <mxGeometry width="30" height="30" as="geometry">
            <mxRectangle width="30" height="30" as="alternateBounds" />
          </mxGeometry>
        </mxCell>
        <mxCell id="qdoZ0_azvyJZ9i20PAHD-309" value="IntakeID " style="shape=partialRectangle;connectable=0;fillColor=none;top=0;left=0;bottom=0;right=0;align=left;spacingLeft=6;overflow=hidden;whiteSpace=wrap;html=1;" parent="qdoZ0_azvyJZ9i20PAHD-307" vertex="1">
          <mxGeometry x="30" width="150" height="30" as="geometry">
            <mxRectangle width="150" height="30" as="alternateBounds" />
          </mxGeometry>
        </mxCell>
        <mxCell id="qdoZ0_azvyJZ9i20PAHD-316" style="shape=tableRow;horizontal=0;startSize=0;swimlaneHead=0;swimlaneBody=0;fillColor=none;collapsible=0;dropTarget=0;points=[[0,0.5],[1,0.5]];portConstraint=eastwest;top=0;left=0;right=0;bottom=0;" parent="qdoZ0_azvyJZ9i20PAHD-300" vertex="1">
          <mxGeometry y="210" width="180" height="30" as="geometry" />
        </mxCell>
        <mxCell id="qdoZ0_azvyJZ9i20PAHD-317" value="FK" style="shape=partialRectangle;connectable=0;fillColor=none;top=0;left=0;bottom=0;right=0;editable=1;overflow=hidden;whiteSpace=wrap;html=1;" parent="qdoZ0_azvyJZ9i20PAHD-316" vertex="1">
          <mxGeometry width="30" height="30" as="geometry">
            <mxRectangle width="30" height="30" as="alternateBounds" />
          </mxGeometry>
        </mxCell>
        <mxCell id="qdoZ0_azvyJZ9i20PAHD-318" value="CourseID " style="shape=partialRectangle;connectable=0;fillColor=none;top=0;left=0;bottom=0;right=0;align=left;spacingLeft=6;overflow=hidden;whiteSpace=wrap;html=1;" parent="qdoZ0_azvyJZ9i20PAHD-316" vertex="1">
          <mxGeometry x="30" width="150" height="30" as="geometry">
            <mxRectangle width="150" height="30" as="alternateBounds" />
          </mxGeometry>
        </mxCell>
        <mxCell id="qdoZ0_azvyJZ9i20PAHD-320" style="shape=tableRow;horizontal=0;startSize=0;swimlaneHead=0;swimlaneBody=0;fillColor=none;collapsible=0;dropTarget=0;points=[[0,0.5],[1,0.5]];portConstraint=eastwest;top=0;left=0;right=0;bottom=0;" parent="qdoZ0_azvyJZ9i20PAHD-300" vertex="1">
          <mxGeometry y="240" width="180" height="30" as="geometry" />
        </mxCell>
        <mxCell id="qdoZ0_azvyJZ9i20PAHD-321" value="FK" style="shape=partialRectangle;connectable=0;fillColor=none;top=0;left=0;bottom=0;right=0;editable=1;overflow=hidden;whiteSpace=wrap;html=1;" parent="qdoZ0_azvyJZ9i20PAHD-320" vertex="1">
          <mxGeometry width="30" height="30" as="geometry">
            <mxRectangle width="30" height="30" as="alternateBounds" />
          </mxGeometry>
        </mxCell>
        <mxCell id="qdoZ0_azvyJZ9i20PAHD-322" value="InstructorID " style="shape=partialRectangle;connectable=0;fillColor=none;top=0;left=0;bottom=0;right=0;align=left;spacingLeft=6;overflow=hidden;whiteSpace=wrap;html=1;" parent="qdoZ0_azvyJZ9i20PAHD-320" vertex="1">
          <mxGeometry x="30" width="150" height="30" as="geometry">
            <mxRectangle width="150" height="30" as="alternateBounds" />
          </mxGeometry>
        </mxCell>
        <mxCell id="qdoZ0_azvyJZ9i20PAHD-348" value="Branch_Track_Intake" style="shape=table;startSize=30;container=1;collapsible=1;childLayout=tableLayout;fixedRows=1;rowLines=0;fontStyle=1;align=center;resizeLast=1;html=1;whiteSpace=wrap;" parent="1" vertex="1">
          <mxGeometry x="1834.5" y="906" width="247" height="120" as="geometry" />
        </mxCell>
        <mxCell id="qdoZ0_azvyJZ9i20PAHD-349" value="" style="shape=tableRow;horizontal=0;startSize=0;swimlaneHead=0;swimlaneBody=0;fillColor=none;collapsible=0;dropTarget=0;points=[[0,0.5],[1,0.5]];portConstraint=eastwest;top=0;left=0;right=0;bottom=0;html=1;" parent="qdoZ0_azvyJZ9i20PAHD-348" vertex="1">
          <mxGeometry y="30" width="247" height="30" as="geometry" />
        </mxCell>
        <mxCell id="qdoZ0_azvyJZ9i20PAHD-350" value="FK1" style="shape=partialRectangle;connectable=0;fillColor=none;top=0;left=0;bottom=0;right=0;fontStyle=1;overflow=hidden;html=1;whiteSpace=wrap;" parent="qdoZ0_azvyJZ9i20PAHD-349" vertex="1">
          <mxGeometry width="60" height="30" as="geometry">
            <mxRectangle width="60" height="30" as="alternateBounds" />
          </mxGeometry>
        </mxCell>
        <mxCell id="qdoZ0_azvyJZ9i20PAHD-351" value="BranchID" style="shape=partialRectangle;connectable=0;fillColor=none;top=0;left=0;bottom=0;right=0;align=left;spacingLeft=6;fontStyle=5;overflow=hidden;html=1;whiteSpace=wrap;" parent="qdoZ0_azvyJZ9i20PAHD-349" vertex="1">
          <mxGeometry x="60" width="187" height="30" as="geometry">
            <mxRectangle width="187" height="30" as="alternateBounds" />
          </mxGeometry>
        </mxCell>
        <mxCell id="alRnXDLNLgAU0s-5y_gV-4" style="shape=tableRow;horizontal=0;startSize=0;swimlaneHead=0;swimlaneBody=0;fillColor=none;collapsible=0;dropTarget=0;points=[[0,0.5],[1,0.5]];portConstraint=eastwest;top=0;left=0;right=0;bottom=0;html=1;" parent="qdoZ0_azvyJZ9i20PAHD-348" vertex="1">
          <mxGeometry y="60" width="247" height="30" as="geometry" />
        </mxCell>
        <mxCell id="alRnXDLNLgAU0s-5y_gV-5" value="PK,FK2" style="shape=partialRectangle;connectable=0;fillColor=none;top=0;left=0;bottom=0;right=0;fontStyle=1;overflow=hidden;html=1;whiteSpace=wrap;" parent="alRnXDLNLgAU0s-5y_gV-4" vertex="1">
          <mxGeometry width="60" height="30" as="geometry">
            <mxRectangle width="60" height="30" as="alternateBounds" />
          </mxGeometry>
        </mxCell>
        <mxCell id="alRnXDLNLgAU0s-5y_gV-6" value="TrackID" style="shape=partialRectangle;connectable=0;fillColor=none;top=0;left=0;bottom=0;right=0;align=left;spacingLeft=6;fontStyle=5;overflow=hidden;html=1;whiteSpace=wrap;" parent="alRnXDLNLgAU0s-5y_gV-4" vertex="1">
          <mxGeometry x="60" width="187" height="30" as="geometry">
            <mxRectangle width="187" height="30" as="alternateBounds" />
          </mxGeometry>
        </mxCell>
        <mxCell id="qdoZ0_azvyJZ9i20PAHD-352" value="" style="shape=tableRow;horizontal=0;startSize=0;swimlaneHead=0;swimlaneBody=0;fillColor=none;collapsible=0;dropTarget=0;points=[[0,0.5],[1,0.5]];portConstraint=eastwest;top=0;left=0;right=0;bottom=1;html=1;" parent="qdoZ0_azvyJZ9i20PAHD-348" vertex="1">
          <mxGeometry y="90" width="247" height="30" as="geometry" />
        </mxCell>
        <mxCell id="qdoZ0_azvyJZ9i20PAHD-353" value="PK,FK3" style="shape=partialRectangle;connectable=0;fillColor=none;top=0;left=0;bottom=0;right=0;fontStyle=1;overflow=hidden;html=1;whiteSpace=wrap;" parent="qdoZ0_azvyJZ9i20PAHD-352" vertex="1">
          <mxGeometry width="60" height="30" as="geometry">
            <mxRectangle width="60" height="30" as="alternateBounds" />
          </mxGeometry>
        </mxCell>
        <mxCell id="qdoZ0_azvyJZ9i20PAHD-354" value="IntakeID" style="shape=partialRectangle;connectable=0;fillColor=none;top=0;left=0;bottom=0;right=0;align=left;spacingLeft=6;fontStyle=5;overflow=hidden;html=1;whiteSpace=wrap;" parent="qdoZ0_azvyJZ9i20PAHD-352" vertex="1">
          <mxGeometry x="60" width="187" height="30" as="geometry">
            <mxRectangle width="187" height="30" as="alternateBounds" />
          </mxGeometry>
        </mxCell>
        <mxCell id="qdoZ0_azvyJZ9i20PAHD-375" value="Student_Course" style="shape=table;startSize=30;container=1;collapsible=1;childLayout=tableLayout;fixedRows=1;rowLines=0;fontStyle=1;align=center;resizeLast=1;html=1;whiteSpace=wrap;" parent="1" vertex="1">
          <mxGeometry x="2345" y="885" width="180" height="150" as="geometry" />
        </mxCell>
        <mxCell id="qdoZ0_azvyJZ9i20PAHD-376" value="" style="shape=tableRow;horizontal=0;startSize=0;swimlaneHead=0;swimlaneBody=0;fillColor=none;collapsible=0;dropTarget=0;points=[[0,0.5],[1,0.5]];portConstraint=eastwest;top=0;left=0;right=0;bottom=0;html=1;" parent="qdoZ0_azvyJZ9i20PAHD-375" vertex="1">
          <mxGeometry y="30" width="180" height="30" as="geometry" />
        </mxCell>
        <mxCell id="qdoZ0_azvyJZ9i20PAHD-377" value="PK,FK1" style="shape=partialRectangle;connectable=0;fillColor=none;top=0;left=0;bottom=0;right=0;fontStyle=1;overflow=hidden;html=1;whiteSpace=wrap;" parent="qdoZ0_azvyJZ9i20PAHD-376" vertex="1">
          <mxGeometry width="60" height="30" as="geometry">
            <mxRectangle width="60" height="30" as="alternateBounds" />
          </mxGeometry>
        </mxCell>
        <mxCell id="qdoZ0_azvyJZ9i20PAHD-378" value="CourseID" style="shape=partialRectangle;connectable=0;fillColor=none;top=0;left=0;bottom=0;right=0;align=left;spacingLeft=6;fontStyle=5;overflow=hidden;html=1;whiteSpace=wrap;" parent="qdoZ0_azvyJZ9i20PAHD-376" vertex="1">
          <mxGeometry x="60" width="120" height="30" as="geometry">
            <mxRectangle width="120" height="30" as="alternateBounds" />
          </mxGeometry>
        </mxCell>
        <mxCell id="qdoZ0_azvyJZ9i20PAHD-379" value="" style="shape=tableRow;horizontal=0;startSize=0;swimlaneHead=0;swimlaneBody=0;fillColor=none;collapsible=0;dropTarget=0;points=[[0,0.5],[1,0.5]];portConstraint=eastwest;top=0;left=0;right=0;bottom=1;html=1;" parent="qdoZ0_azvyJZ9i20PAHD-375" vertex="1">
          <mxGeometry y="60" width="180" height="30" as="geometry" />
        </mxCell>
        <mxCell id="qdoZ0_azvyJZ9i20PAHD-380" value="PK,FK2" style="shape=partialRectangle;connectable=0;fillColor=none;top=0;left=0;bottom=0;right=0;fontStyle=1;overflow=hidden;html=1;whiteSpace=wrap;" parent="qdoZ0_azvyJZ9i20PAHD-379" vertex="1">
          <mxGeometry width="60" height="30" as="geometry">
            <mxRectangle width="60" height="30" as="alternateBounds" />
          </mxGeometry>
        </mxCell>
        <mxCell id="qdoZ0_azvyJZ9i20PAHD-381" value="StudentID" style="shape=partialRectangle;connectable=0;fillColor=none;top=0;left=0;bottom=0;right=0;align=left;spacingLeft=6;fontStyle=5;overflow=hidden;html=1;whiteSpace=wrap;" parent="qdoZ0_azvyJZ9i20PAHD-379" vertex="1">
          <mxGeometry x="60" width="120" height="30" as="geometry">
            <mxRectangle width="120" height="30" as="alternateBounds" />
          </mxGeometry>
        </mxCell>
        <mxCell id="UmxnHwhrCkEKUfgmE8cQ-1" style="shape=tableRow;horizontal=0;startSize=0;swimlaneHead=0;swimlaneBody=0;fillColor=none;collapsible=0;dropTarget=0;points=[[0,0.5],[1,0.5]];portConstraint=eastwest;top=0;left=0;right=0;bottom=1;html=1;" vertex="1" parent="qdoZ0_azvyJZ9i20PAHD-375">
          <mxGeometry y="90" width="180" height="30" as="geometry" />
        </mxCell>
        <mxCell id="UmxnHwhrCkEKUfgmE8cQ-2" style="shape=partialRectangle;connectable=0;fillColor=none;top=0;left=0;bottom=0;right=0;fontStyle=1;overflow=hidden;html=1;whiteSpace=wrap;" vertex="1" parent="UmxnHwhrCkEKUfgmE8cQ-1">
          <mxGeometry width="60" height="30" as="geometry">
            <mxRectangle width="60" height="30" as="alternateBounds" />
          </mxGeometry>
        </mxCell>
        <mxCell id="UmxnHwhrCkEKUfgmE8cQ-3" value="degree" style="shape=partialRectangle;connectable=0;fillColor=none;top=0;left=0;bottom=0;right=0;align=left;spacingLeft=6;fontStyle=5;overflow=hidden;html=1;whiteSpace=wrap;" vertex="1" parent="UmxnHwhrCkEKUfgmE8cQ-1">
          <mxGeometry x="60" width="120" height="30" as="geometry">
            <mxRectangle width="120" height="30" as="alternateBounds" />
          </mxGeometry>
        </mxCell>
        <mxCell id="UmxnHwhrCkEKUfgmE8cQ-4" style="shape=tableRow;horizontal=0;startSize=0;swimlaneHead=0;swimlaneBody=0;fillColor=none;collapsible=0;dropTarget=0;points=[[0,0.5],[1,0.5]];portConstraint=eastwest;top=0;left=0;right=0;bottom=1;html=1;" vertex="1" parent="qdoZ0_azvyJZ9i20PAHD-375">
          <mxGeometry y="120" width="180" height="30" as="geometry" />
        </mxCell>
        <mxCell id="UmxnHwhrCkEKUfgmE8cQ-5" style="shape=partialRectangle;connectable=0;fillColor=none;top=0;left=0;bottom=0;right=0;fontStyle=1;overflow=hidden;html=1;whiteSpace=wrap;" vertex="1" parent="UmxnHwhrCkEKUfgmE8cQ-4">
          <mxGeometry width="60" height="30" as="geometry">
            <mxRectangle width="60" height="30" as="alternateBounds" />
          </mxGeometry>
        </mxCell>
        <mxCell id="UmxnHwhrCkEKUfgmE8cQ-6" value="Status" style="shape=partialRectangle;connectable=0;fillColor=none;top=0;left=0;bottom=0;right=0;align=left;spacingLeft=6;fontStyle=5;overflow=hidden;html=1;whiteSpace=wrap;" vertex="1" parent="UmxnHwhrCkEKUfgmE8cQ-4">
          <mxGeometry x="60" width="120" height="30" as="geometry">
            <mxRectangle width="120" height="30" as="alternateBounds" />
          </mxGeometry>
        </mxCell>
        <mxCell id="qdoZ0_azvyJZ9i20PAHD-393" style="rounded=0;orthogonalLoop=1;jettySize=auto;html=1;exitX=0.5;exitY=1;exitDx=0;exitDy=0;entryX=1;entryY=0;entryDx=0;entryDy=0;endArrow=none;endFill=0;" parent="1" source="qdoZ0_azvyJZ9i20PAHD-392" target="qdoZ0_azvyJZ9i20PAHD-118" edge="1">
          <mxGeometry relative="1" as="geometry" />
        </mxCell>
        <mxCell id="qdoZ0_azvyJZ9i20PAHD-392" value="Answers" style="ellipse;whiteSpace=wrap;html=1;align=center;" parent="1" vertex="1">
          <mxGeometry x="390" y="403" width="100" height="40" as="geometry" />
        </mxCell>
        <mxCell id="qdoZ0_azvyJZ9i20PAHD-394" value="Result" style="ellipse;whiteSpace=wrap;html=1;align=center;" parent="1" vertex="1">
          <mxGeometry x="272" y="400" width="100" height="40" as="geometry" />
        </mxCell>
        <mxCell id="qdoZ0_azvyJZ9i20PAHD-395" style="rounded=0;orthogonalLoop=1;jettySize=auto;html=1;exitX=0.5;exitY=1;exitDx=0;exitDy=0;entryX=0;entryY=0;entryDx=0;entryDy=0;endArrow=none;endFill=0;" parent="1" source="qdoZ0_azvyJZ9i20PAHD-394" target="qdoZ0_azvyJZ9i20PAHD-118" edge="1">
          <mxGeometry relative="1" as="geometry" />
        </mxCell>
        <mxCell id="qdoZ0_azvyJZ9i20PAHD-399" value="Student_Exam_Question" style="shape=table;startSize=30;container=1;collapsible=1;childLayout=tableLayout;fixedRows=1;rowLines=0;fontStyle=1;align=center;resizeLast=1;html=1;whiteSpace=wrap;" parent="1" vertex="1">
          <mxGeometry x="2118" y="906" width="180" height="180" as="geometry" />
        </mxCell>
        <mxCell id="qdoZ0_azvyJZ9i20PAHD-400" value="" style="shape=tableRow;horizontal=0;startSize=0;swimlaneHead=0;swimlaneBody=0;fillColor=none;collapsible=0;dropTarget=0;points=[[0,0.5],[1,0.5]];portConstraint=eastwest;top=0;left=0;right=0;bottom=0;html=1;" parent="qdoZ0_azvyJZ9i20PAHD-399" vertex="1">
          <mxGeometry y="30" width="180" height="30" as="geometry" />
        </mxCell>
        <mxCell id="qdoZ0_azvyJZ9i20PAHD-401" value="PK,FK1" style="shape=partialRectangle;connectable=0;fillColor=none;top=0;left=0;bottom=0;right=0;fontStyle=1;overflow=hidden;html=1;whiteSpace=wrap;" parent="qdoZ0_azvyJZ9i20PAHD-400" vertex="1">
          <mxGeometry width="60" height="30" as="geometry">
            <mxRectangle width="60" height="30" as="alternateBounds" />
          </mxGeometry>
        </mxCell>
        <mxCell id="qdoZ0_azvyJZ9i20PAHD-402" value="ExamID" style="shape=partialRectangle;connectable=0;fillColor=none;top=0;left=0;bottom=0;right=0;align=left;spacingLeft=6;fontStyle=5;overflow=hidden;html=1;whiteSpace=wrap;" parent="qdoZ0_azvyJZ9i20PAHD-400" vertex="1">
          <mxGeometry x="60" width="120" height="30" as="geometry">
            <mxRectangle width="120" height="30" as="alternateBounds" />
          </mxGeometry>
        </mxCell>
        <mxCell id="aZKWLkrj-SSMz89DwlnP-9" style="shape=tableRow;horizontal=0;startSize=0;swimlaneHead=0;swimlaneBody=0;fillColor=none;collapsible=0;dropTarget=0;points=[[0,0.5],[1,0.5]];portConstraint=eastwest;top=0;left=0;right=0;bottom=0;html=1;" parent="qdoZ0_azvyJZ9i20PAHD-399" vertex="1">
          <mxGeometry y="60" width="180" height="30" as="geometry" />
        </mxCell>
        <mxCell id="aZKWLkrj-SSMz89DwlnP-10" value="FK2" style="shape=partialRectangle;connectable=0;fillColor=none;top=0;left=0;bottom=0;right=0;fontStyle=1;overflow=hidden;html=1;whiteSpace=wrap;" parent="aZKWLkrj-SSMz89DwlnP-9" vertex="1">
          <mxGeometry width="60" height="30" as="geometry">
            <mxRectangle width="60" height="30" as="alternateBounds" />
          </mxGeometry>
        </mxCell>
        <mxCell id="aZKWLkrj-SSMz89DwlnP-11" value="QuestionID" style="shape=partialRectangle;connectable=0;fillColor=none;top=0;left=0;bottom=0;right=0;align=left;spacingLeft=6;fontStyle=5;overflow=hidden;html=1;whiteSpace=wrap;" parent="aZKWLkrj-SSMz89DwlnP-9" vertex="1">
          <mxGeometry x="60" width="120" height="30" as="geometry">
            <mxRectangle width="120" height="30" as="alternateBounds" />
          </mxGeometry>
        </mxCell>
        <mxCell id="qdoZ0_azvyJZ9i20PAHD-403" value="" style="shape=tableRow;horizontal=0;startSize=0;swimlaneHead=0;swimlaneBody=0;fillColor=none;collapsible=0;dropTarget=0;points=[[0,0.5],[1,0.5]];portConstraint=eastwest;top=0;left=0;right=0;bottom=1;html=1;" parent="qdoZ0_azvyJZ9i20PAHD-399" vertex="1">
          <mxGeometry y="90" width="180" height="30" as="geometry" />
        </mxCell>
        <mxCell id="qdoZ0_azvyJZ9i20PAHD-404" value="PK,FK2" style="shape=partialRectangle;connectable=0;fillColor=none;top=0;left=0;bottom=0;right=0;fontStyle=1;overflow=hidden;html=1;whiteSpace=wrap;" parent="qdoZ0_azvyJZ9i20PAHD-403" vertex="1">
          <mxGeometry width="60" height="30" as="geometry">
            <mxRectangle width="60" height="30" as="alternateBounds" />
          </mxGeometry>
        </mxCell>
        <mxCell id="qdoZ0_azvyJZ9i20PAHD-405" value="StudentID" style="shape=partialRectangle;connectable=0;fillColor=none;top=0;left=0;bottom=0;right=0;align=left;spacingLeft=6;fontStyle=5;overflow=hidden;html=1;whiteSpace=wrap;" parent="qdoZ0_azvyJZ9i20PAHD-403" vertex="1">
          <mxGeometry x="60" width="120" height="30" as="geometry">
            <mxRectangle width="120" height="30" as="alternateBounds" />
          </mxGeometry>
        </mxCell>
        <mxCell id="qdoZ0_azvyJZ9i20PAHD-406" value="" style="shape=tableRow;horizontal=0;startSize=0;swimlaneHead=0;swimlaneBody=0;fillColor=none;collapsible=0;dropTarget=0;points=[[0,0.5],[1,0.5]];portConstraint=eastwest;top=0;left=0;right=0;bottom=0;html=1;" parent="qdoZ0_azvyJZ9i20PAHD-399" vertex="1">
          <mxGeometry y="120" width="180" height="30" as="geometry" />
        </mxCell>
        <mxCell id="qdoZ0_azvyJZ9i20PAHD-407" value="" style="shape=partialRectangle;connectable=0;fillColor=none;top=0;left=0;bottom=0;right=0;editable=1;overflow=hidden;html=1;whiteSpace=wrap;" parent="qdoZ0_azvyJZ9i20PAHD-406" vertex="1">
          <mxGeometry width="60" height="30" as="geometry">
            <mxRectangle width="60" height="30" as="alternateBounds" />
          </mxGeometry>
        </mxCell>
        <mxCell id="qdoZ0_azvyJZ9i20PAHD-408" value="Answers" style="shape=partialRectangle;connectable=0;fillColor=none;top=0;left=0;bottom=0;right=0;align=left;spacingLeft=6;overflow=hidden;html=1;whiteSpace=wrap;" parent="qdoZ0_azvyJZ9i20PAHD-406" vertex="1">
          <mxGeometry x="60" width="120" height="30" as="geometry">
            <mxRectangle width="120" height="30" as="alternateBounds" />
          </mxGeometry>
        </mxCell>
        <mxCell id="qdoZ0_azvyJZ9i20PAHD-409" value="" style="shape=tableRow;horizontal=0;startSize=0;swimlaneHead=0;swimlaneBody=0;fillColor=none;collapsible=0;dropTarget=0;points=[[0,0.5],[1,0.5]];portConstraint=eastwest;top=0;left=0;right=0;bottom=0;html=1;" parent="qdoZ0_azvyJZ9i20PAHD-399" vertex="1">
          <mxGeometry y="150" width="180" height="30" as="geometry" />
        </mxCell>
        <mxCell id="qdoZ0_azvyJZ9i20PAHD-410" value="" style="shape=partialRectangle;connectable=0;fillColor=none;top=0;left=0;bottom=0;right=0;editable=1;overflow=hidden;html=1;whiteSpace=wrap;" parent="qdoZ0_azvyJZ9i20PAHD-409" vertex="1">
          <mxGeometry width="60" height="30" as="geometry">
            <mxRectangle width="60" height="30" as="alternateBounds" />
          </mxGeometry>
        </mxCell>
        <mxCell id="qdoZ0_azvyJZ9i20PAHD-411" value="Result" style="shape=partialRectangle;connectable=0;fillColor=none;top=0;left=0;bottom=0;right=0;align=left;spacingLeft=6;overflow=hidden;html=1;whiteSpace=wrap;" parent="qdoZ0_azvyJZ9i20PAHD-409" vertex="1">
          <mxGeometry x="60" width="120" height="30" as="geometry">
            <mxRectangle width="120" height="30" as="alternateBounds" />
          </mxGeometry>
        </mxCell>
        <mxCell id="qdoZ0_azvyJZ9i20PAHD-412" value="Track" style="shape=table;startSize=30;container=1;collapsible=1;childLayout=tableLayout;fixedRows=1;rowLines=0;fontStyle=1;align=center;resizeLast=1;html=1;" parent="1" vertex="1">
          <mxGeometry x="2088" y="403" width="180" height="90" as="geometry" />
        </mxCell>
        <mxCell id="qdoZ0_azvyJZ9i20PAHD-413" value="" style="shape=tableRow;horizontal=0;startSize=0;swimlaneHead=0;swimlaneBody=0;fillColor=none;collapsible=0;dropTarget=0;points=[[0,0.5],[1,0.5]];portConstraint=eastwest;top=0;left=0;right=0;bottom=1;" parent="qdoZ0_azvyJZ9i20PAHD-412" vertex="1">
          <mxGeometry y="30" width="180" height="30" as="geometry" />
        </mxCell>
        <mxCell id="qdoZ0_azvyJZ9i20PAHD-414" value="PK" style="shape=partialRectangle;connectable=0;fillColor=none;top=0;left=0;bottom=0;right=0;fontStyle=1;overflow=hidden;whiteSpace=wrap;html=1;" parent="qdoZ0_azvyJZ9i20PAHD-413" vertex="1">
          <mxGeometry width="30" height="30" as="geometry">
            <mxRectangle width="30" height="30" as="alternateBounds" />
          </mxGeometry>
        </mxCell>
        <mxCell id="qdoZ0_azvyJZ9i20PAHD-415" value="TrackID" style="shape=partialRectangle;connectable=0;fillColor=none;top=0;left=0;bottom=0;right=0;align=left;spacingLeft=6;fontStyle=5;overflow=hidden;whiteSpace=wrap;html=1;" parent="qdoZ0_azvyJZ9i20PAHD-413" vertex="1">
          <mxGeometry x="30" width="150" height="30" as="geometry">
            <mxRectangle width="150" height="30" as="alternateBounds" />
          </mxGeometry>
        </mxCell>
        <mxCell id="qdoZ0_azvyJZ9i20PAHD-416" value="" style="shape=tableRow;horizontal=0;startSize=0;swimlaneHead=0;swimlaneBody=0;fillColor=none;collapsible=0;dropTarget=0;points=[[0,0.5],[1,0.5]];portConstraint=eastwest;top=0;left=0;right=0;bottom=0;" parent="qdoZ0_azvyJZ9i20PAHD-412" vertex="1">
          <mxGeometry y="60" width="180" height="30" as="geometry" />
        </mxCell>
        <mxCell id="qdoZ0_azvyJZ9i20PAHD-417" value="" style="shape=partialRectangle;connectable=0;fillColor=none;top=0;left=0;bottom=0;right=0;editable=1;overflow=hidden;whiteSpace=wrap;html=1;" parent="qdoZ0_azvyJZ9i20PAHD-416" vertex="1">
          <mxGeometry width="30" height="30" as="geometry">
            <mxRectangle width="30" height="30" as="alternateBounds" />
          </mxGeometry>
        </mxCell>
        <mxCell id="qdoZ0_azvyJZ9i20PAHD-418" value="TrackName" style="shape=partialRectangle;connectable=0;fillColor=none;top=0;left=0;bottom=0;right=0;align=left;spacingLeft=6;overflow=hidden;whiteSpace=wrap;html=1;" parent="qdoZ0_azvyJZ9i20PAHD-416" vertex="1">
          <mxGeometry x="30" width="150" height="30" as="geometry">
            <mxRectangle width="150" height="30" as="alternateBounds" />
          </mxGeometry>
        </mxCell>
        <mxCell id="qdoZ0_azvyJZ9i20PAHD-428" value="Intake" style="shape=table;startSize=30;container=1;collapsible=1;childLayout=tableLayout;fixedRows=1;rowLines=0;fontStyle=1;align=center;resizeLast=1;html=1;" parent="1" vertex="1">
          <mxGeometry x="2337" y="403" width="180" height="90" as="geometry" />
        </mxCell>
        <mxCell id="qdoZ0_azvyJZ9i20PAHD-429" value="" style="shape=tableRow;horizontal=0;startSize=0;swimlaneHead=0;swimlaneBody=0;fillColor=none;collapsible=0;dropTarget=0;points=[[0,0.5],[1,0.5]];portConstraint=eastwest;top=0;left=0;right=0;bottom=1;" parent="qdoZ0_azvyJZ9i20PAHD-428" vertex="1">
          <mxGeometry y="30" width="180" height="30" as="geometry" />
        </mxCell>
        <mxCell id="qdoZ0_azvyJZ9i20PAHD-430" value="PK" style="shape=partialRectangle;connectable=0;fillColor=none;top=0;left=0;bottom=0;right=0;fontStyle=1;overflow=hidden;whiteSpace=wrap;html=1;" parent="qdoZ0_azvyJZ9i20PAHD-429" vertex="1">
          <mxGeometry width="30" height="30" as="geometry">
            <mxRectangle width="30" height="30" as="alternateBounds" />
          </mxGeometry>
        </mxCell>
        <mxCell id="qdoZ0_azvyJZ9i20PAHD-431" value="IntakeID" style="shape=partialRectangle;connectable=0;fillColor=none;top=0;left=0;bottom=0;right=0;align=left;spacingLeft=6;fontStyle=5;overflow=hidden;whiteSpace=wrap;html=1;" parent="qdoZ0_azvyJZ9i20PAHD-429" vertex="1">
          <mxGeometry x="30" width="150" height="30" as="geometry">
            <mxRectangle width="150" height="30" as="alternateBounds" />
          </mxGeometry>
        </mxCell>
        <mxCell id="qdoZ0_azvyJZ9i20PAHD-432" value="" style="shape=tableRow;horizontal=0;startSize=0;swimlaneHead=0;swimlaneBody=0;fillColor=none;collapsible=0;dropTarget=0;points=[[0,0.5],[1,0.5]];portConstraint=eastwest;top=0;left=0;right=0;bottom=0;" parent="qdoZ0_azvyJZ9i20PAHD-428" vertex="1">
          <mxGeometry y="60" width="180" height="30" as="geometry" />
        </mxCell>
        <mxCell id="qdoZ0_azvyJZ9i20PAHD-433" value="" style="shape=partialRectangle;connectable=0;fillColor=none;top=0;left=0;bottom=0;right=0;editable=1;overflow=hidden;whiteSpace=wrap;html=1;" parent="qdoZ0_azvyJZ9i20PAHD-432" vertex="1">
          <mxGeometry width="30" height="30" as="geometry">
            <mxRectangle width="30" height="30" as="alternateBounds" />
          </mxGeometry>
        </mxCell>
        <mxCell id="qdoZ0_azvyJZ9i20PAHD-434" value="IntakeName" style="shape=partialRectangle;connectable=0;fillColor=none;top=0;left=0;bottom=0;right=0;align=left;spacingLeft=6;overflow=hidden;whiteSpace=wrap;html=1;" parent="qdoZ0_azvyJZ9i20PAHD-432" vertex="1">
          <mxGeometry x="30" width="150" height="30" as="geometry">
            <mxRectangle width="150" height="30" as="alternateBounds" />
          </mxGeometry>
        </mxCell>
        <mxCell id="qdoZ0_azvyJZ9i20PAHD-442" value="M" style="rounded=0;orthogonalLoop=1;jettySize=auto;html=1;exitX=1;exitY=0.5;exitDx=0;exitDy=0;entryX=0;entryY=0.75;entryDx=0;entryDy=0;endArrow=none;endFill=0;" parent="1" source="qdoZ0_azvyJZ9i20PAHD-441" target="qdoZ0_azvyJZ9i20PAHD-16" edge="1">
          <mxGeometry relative="1" as="geometry" />
        </mxCell>
        <mxCell id="qdoZ0_azvyJZ9i20PAHD-441" value="contain" style="shape=rhombus;perimeter=rhombusPerimeter;whiteSpace=wrap;html=1;align=center;" parent="1" vertex="1">
          <mxGeometry x="-202" y="184" width="120" height="60" as="geometry" />
        </mxCell>
        <mxCell id="qdoZ0_azvyJZ9i20PAHD-443" value="M" style="rounded=0;orthogonalLoop=1;jettySize=auto;html=1;exitX=0;exitY=0.5;exitDx=0;exitDy=0;entryX=0.595;entryY=0.056;entryDx=0;entryDy=0;entryPerimeter=0;endArrow=none;endFill=0;shape=link;" parent="1" source="qdoZ0_azvyJZ9i20PAHD-441" target="qdoZ0_azvyJZ9i20PAHD-18" edge="1">
          <mxGeometry relative="1" as="geometry" />
        </mxCell>
        <mxCell id="qdoZ0_azvyJZ9i20PAHD-452" style="rounded=0;orthogonalLoop=1;jettySize=auto;html=1;exitX=1;exitY=1;exitDx=0;exitDy=0;endArrow=none;endFill=0;entryX=0;entryY=0;entryDx=0;entryDy=0;" parent="1" source="qdoZ0_azvyJZ9i20PAHD-450" target="qdoZ0_azvyJZ9i20PAHD-21" edge="1">
          <mxGeometry relative="1" as="geometry">
            <mxPoint x="77" y="368" as="targetPoint" />
          </mxGeometry>
        </mxCell>
        <mxCell id="qdoZ0_azvyJZ9i20PAHD-450" value="Address" style="ellipse;whiteSpace=wrap;html=1;align=center;" parent="1" vertex="1">
          <mxGeometry x="-56" y="287" width="100" height="40" as="geometry" />
        </mxCell>
        <mxCell id="qdoZ0_azvyJZ9i20PAHD-453" style="rounded=0;orthogonalLoop=1;jettySize=auto;html=1;exitX=1;exitY=1;exitDx=0;exitDy=0;endArrow=none;endFill=0;" parent="1" source="qdoZ0_azvyJZ9i20PAHD-451" target="qdoZ0_azvyJZ9i20PAHD-21" edge="1">
          <mxGeometry relative="1" as="geometry">
            <mxPoint x="88" y="393" as="targetPoint" />
          </mxGeometry>
        </mxCell>
        <mxCell id="qdoZ0_azvyJZ9i20PAHD-451" value="Age" style="ellipse;whiteSpace=wrap;html=1;align=center;" parent="1" vertex="1">
          <mxGeometry x="107" y="440" width="100" height="40" as="geometry" />
        </mxCell>
        <mxCell id="qdoZ0_azvyJZ9i20PAHD-460" style="rounded=0;orthogonalLoop=1;jettySize=auto;html=1;exitX=1;exitY=0.5;exitDx=0;exitDy=0;entryX=0.25;entryY=1;entryDx=0;entryDy=0;endArrow=none;endFill=0;" parent="1" source="qdoZ0_azvyJZ9i20PAHD-454" target="qdoZ0_azvyJZ9i20PAHD-20" edge="1">
          <mxGeometry relative="1" as="geometry" />
        </mxCell>
        <mxCell id="qdoZ0_azvyJZ9i20PAHD-454" value="Address" style="ellipse;whiteSpace=wrap;html=1;align=center;" parent="1" vertex="1">
          <mxGeometry x="-557" y="906" width="100" height="40" as="geometry" />
        </mxCell>
        <mxCell id="qdoZ0_azvyJZ9i20PAHD-459" style="rounded=0;orthogonalLoop=1;jettySize=auto;html=1;exitX=1;exitY=0.5;exitDx=0;exitDy=0;entryX=0;entryY=1;entryDx=0;entryDy=0;endArrow=none;endFill=0;" parent="1" source="qdoZ0_azvyJZ9i20PAHD-455" target="qdoZ0_azvyJZ9i20PAHD-20" edge="1">
          <mxGeometry relative="1" as="geometry" />
        </mxCell>
        <mxCell id="qdoZ0_azvyJZ9i20PAHD-455" value="Age" style="ellipse;whiteSpace=wrap;html=1;align=center;" parent="1" vertex="1">
          <mxGeometry x="-557" y="856" width="100" height="40" as="geometry" />
        </mxCell>
        <mxCell id="qdoZ0_azvyJZ9i20PAHD-456" value="Phone" style="ellipse;whiteSpace=wrap;html=1;align=center;" parent="1" vertex="1">
          <mxGeometry x="-6" y="434" width="100" height="40" as="geometry" />
        </mxCell>
        <mxCell id="qdoZ0_azvyJZ9i20PAHD-461" style="rounded=0;orthogonalLoop=1;jettySize=auto;html=1;exitX=1;exitY=0;exitDx=0;exitDy=0;entryX=0.75;entryY=1;entryDx=0;entryDy=0;endArrow=none;endFill=0;" parent="1" source="qdoZ0_azvyJZ9i20PAHD-457" target="qdoZ0_azvyJZ9i20PAHD-20" edge="1">
          <mxGeometry relative="1" as="geometry" />
        </mxCell>
        <mxCell id="qdoZ0_azvyJZ9i20PAHD-457" value="Phone" style="ellipse;whiteSpace=wrap;html=1;align=center;" parent="1" vertex="1">
          <mxGeometry x="-437" y="916" width="100" height="40" as="geometry" />
        </mxCell>
        <mxCell id="qdoZ0_azvyJZ9i20PAHD-458" style="rounded=0;orthogonalLoop=1;jettySize=auto;html=1;exitX=1;exitY=0;exitDx=0;exitDy=0;entryX=0.179;entryY=1.003;entryDx=0;entryDy=0;entryPerimeter=0;endArrow=none;endFill=0;" parent="1" source="qdoZ0_azvyJZ9i20PAHD-456" target="qdoZ0_azvyJZ9i20PAHD-21" edge="1">
          <mxGeometry relative="1" as="geometry" />
        </mxCell>
        <mxCell id="qdoZ0_azvyJZ9i20PAHD-464" style="rounded=0;orthogonalLoop=1;jettySize=auto;html=1;exitX=0;exitY=1;exitDx=0;exitDy=0;entryX=1;entryY=0.25;entryDx=0;entryDy=0;endArrow=none;endFill=0;" parent="1" source="qdoZ0_azvyJZ9i20PAHD-462" target="qdoZ0_azvyJZ9i20PAHD-19" edge="1">
          <mxGeometry relative="1" as="geometry" />
        </mxCell>
        <mxCell id="qdoZ0_azvyJZ9i20PAHD-462" value="Address" style="ellipse;whiteSpace=wrap;html=1;align=center;" parent="1" vertex="1">
          <mxGeometry x="674" y="64" width="100" height="40" as="geometry" />
        </mxCell>
        <mxCell id="qdoZ0_azvyJZ9i20PAHD-465" style="rounded=0;orthogonalLoop=1;jettySize=auto;html=1;exitX=1;exitY=1;exitDx=0;exitDy=0;entryX=0;entryY=0.25;entryDx=0;entryDy=0;endArrow=none;endFill=0;" parent="1" source="qdoZ0_azvyJZ9i20PAHD-463" target="qdoZ0_azvyJZ9i20PAHD-19" edge="1">
          <mxGeometry relative="1" as="geometry" />
        </mxCell>
        <mxCell id="qdoZ0_azvyJZ9i20PAHD-463" value="Phone" style="ellipse;whiteSpace=wrap;html=1;align=center;" parent="1" vertex="1">
          <mxGeometry x="345" y="86" width="100" height="40" as="geometry" />
        </mxCell>
        <mxCell id="qdoZ0_azvyJZ9i20PAHD-472" style="rounded=0;orthogonalLoop=1;jettySize=auto;html=1;exitX=0;exitY=0.5;exitDx=0;exitDy=0;entryX=1;entryY=0.5;entryDx=0;entryDy=0;endArrow=none;endFill=0;" parent="1" source="qdoZ0_azvyJZ9i20PAHD-468" target="qdoZ0_azvyJZ9i20PAHD-13" edge="1">
          <mxGeometry relative="1" as="geometry" />
        </mxCell>
        <mxCell id="qdoZ0_azvyJZ9i20PAHD-468" value="Address" style="ellipse;whiteSpace=wrap;html=1;align=center;" parent="1" vertex="1">
          <mxGeometry x="1016" y="150" width="100" height="40" as="geometry" />
        </mxCell>
        <mxCell id="qdoZ0_azvyJZ9i20PAHD-469" value="Phone" style="ellipse;whiteSpace=wrap;html=1;align=center;" parent="1" vertex="1">
          <mxGeometry x="979" y="210" width="100" height="40" as="geometry" />
        </mxCell>
        <mxCell id="qdoZ0_azvyJZ9i20PAHD-473" style="rounded=0;orthogonalLoop=1;jettySize=auto;html=1;exitX=0;exitY=0.5;exitDx=0;exitDy=0;entryX=0.907;entryY=1.025;entryDx=0;entryDy=0;entryPerimeter=0;endArrow=none;endFill=0;" parent="1" source="qdoZ0_azvyJZ9i20PAHD-469" target="qdoZ0_azvyJZ9i20PAHD-13" edge="1">
          <mxGeometry relative="1" as="geometry" />
        </mxCell>
        <mxCell id="QF4RMbqLzJ8EvuU-fUo9-2" style="rounded=0;orthogonalLoop=1;jettySize=auto;html=1;entryX=1;entryY=1;entryDx=0;entryDy=0;endArrow=none;endFill=0;exitX=0;exitY=0.5;exitDx=0;exitDy=0;" parent="1" source="QF4RMbqLzJ8EvuU-fUo9-3" target="qdoZ0_azvyJZ9i20PAHD-15" edge="1">
          <mxGeometry relative="1" as="geometry">
            <mxPoint x="746" y="740" as="sourcePoint" />
          </mxGeometry>
        </mxCell>
        <mxCell id="QF4RMbqLzJ8EvuU-fUo9-3" value="Type" style="ellipse;whiteSpace=wrap;html=1;align=center;" parent="1" vertex="1">
          <mxGeometry x="523" y="826" width="100" height="40" as="geometry" />
        </mxCell>
        <mxCell id="3so2MiiZi--uFWkapN8Z-4" style="rounded=0;orthogonalLoop=1;jettySize=auto;html=1;endArrow=none;endFill=0;shape=link;entryX=0;entryY=0.5;entryDx=0;entryDy=0;" parent="1" source="3so2MiiZi--uFWkapN8Z-3" target="qdoZ0_azvyJZ9i20PAHD-22" edge="1">
          <mxGeometry relative="1" as="geometry">
            <mxPoint x="277" y="570" as="targetPoint" />
          </mxGeometry>
        </mxCell>
        <mxCell id="3so2MiiZi--uFWkapN8Z-6" value="M" style="edgeLabel;html=1;align=center;verticalAlign=middle;resizable=0;points=[];" parent="3so2MiiZi--uFWkapN8Z-4" vertex="1" connectable="0">
          <mxGeometry x="0.1936" y="-1" relative="1" as="geometry">
            <mxPoint as="offset" />
          </mxGeometry>
        </mxCell>
        <mxCell id="3so2MiiZi--uFWkapN8Z-5" style="rounded=0;orthogonalLoop=1;jettySize=auto;html=1;entryX=1;entryY=0.75;entryDx=0;entryDy=0;endArrow=none;endFill=0;" parent="1" source="3so2MiiZi--uFWkapN8Z-3" target="qdoZ0_azvyJZ9i20PAHD-18" edge="1">
          <mxGeometry relative="1" as="geometry" />
        </mxCell>
        <mxCell id="3so2MiiZi--uFWkapN8Z-7" value="1" style="edgeLabel;html=1;align=center;verticalAlign=middle;resizable=0;points=[];" parent="3so2MiiZi--uFWkapN8Z-5" vertex="1" connectable="0">
          <mxGeometry x="-0.2236" y="-1" relative="1" as="geometry">
            <mxPoint y="-1" as="offset" />
          </mxGeometry>
        </mxCell>
        <mxCell id="3so2MiiZi--uFWkapN8Z-3" value="contain" style="shape=rhombus;perimeter=rhombusPerimeter;whiteSpace=wrap;html=1;align=center;" parent="1" vertex="1">
          <mxGeometry x="-71" y="528" width="120" height="60" as="geometry" />
        </mxCell>
        <mxCell id="QZHZEhRroXH8wzS-z7nh-1" value="Track_Course" style="shape=table;startSize=30;container=1;collapsible=1;childLayout=tableLayout;fixedRows=1;rowLines=0;fontStyle=1;align=center;resizeLast=1;html=1;whiteSpace=wrap;" parent="1" vertex="1">
          <mxGeometry x="2345" y="1065" width="180" height="90" as="geometry" />
        </mxCell>
        <mxCell id="QZHZEhRroXH8wzS-z7nh-2" value="" style="shape=tableRow;horizontal=0;startSize=0;swimlaneHead=0;swimlaneBody=0;fillColor=none;collapsible=0;dropTarget=0;points=[[0,0.5],[1,0.5]];portConstraint=eastwest;top=0;left=0;right=0;bottom=0;html=1;" parent="QZHZEhRroXH8wzS-z7nh-1" vertex="1">
          <mxGeometry y="30" width="180" height="30" as="geometry" />
        </mxCell>
        <mxCell id="QZHZEhRroXH8wzS-z7nh-3" value="PK,FK1" style="shape=partialRectangle;connectable=0;fillColor=none;top=0;left=0;bottom=0;right=0;fontStyle=1;overflow=hidden;html=1;whiteSpace=wrap;" parent="QZHZEhRroXH8wzS-z7nh-2" vertex="1">
          <mxGeometry width="60" height="30" as="geometry">
            <mxRectangle width="60" height="30" as="alternateBounds" />
          </mxGeometry>
        </mxCell>
        <mxCell id="QZHZEhRroXH8wzS-z7nh-4" value="TrackID" style="shape=partialRectangle;connectable=0;fillColor=none;top=0;left=0;bottom=0;right=0;align=left;spacingLeft=6;fontStyle=5;overflow=hidden;html=1;whiteSpace=wrap;" parent="QZHZEhRroXH8wzS-z7nh-2" vertex="1">
          <mxGeometry x="60" width="120" height="30" as="geometry">
            <mxRectangle width="120" height="30" as="alternateBounds" />
          </mxGeometry>
        </mxCell>
        <mxCell id="QZHZEhRroXH8wzS-z7nh-5" value="" style="shape=tableRow;horizontal=0;startSize=0;swimlaneHead=0;swimlaneBody=0;fillColor=none;collapsible=0;dropTarget=0;points=[[0,0.5],[1,0.5]];portConstraint=eastwest;top=0;left=0;right=0;bottom=1;html=1;" parent="QZHZEhRroXH8wzS-z7nh-1" vertex="1">
          <mxGeometry y="60" width="180" height="30" as="geometry" />
        </mxCell>
        <mxCell id="QZHZEhRroXH8wzS-z7nh-6" value="PK,FK2" style="shape=partialRectangle;connectable=0;fillColor=none;top=0;left=0;bottom=0;right=0;fontStyle=1;overflow=hidden;html=1;whiteSpace=wrap;" parent="QZHZEhRroXH8wzS-z7nh-5" vertex="1">
          <mxGeometry width="60" height="30" as="geometry">
            <mxRectangle width="60" height="30" as="alternateBounds" />
          </mxGeometry>
        </mxCell>
        <mxCell id="QZHZEhRroXH8wzS-z7nh-7" value="CourseID" style="shape=partialRectangle;connectable=0;fillColor=none;top=0;left=0;bottom=0;right=0;align=left;spacingLeft=6;fontStyle=5;overflow=hidden;html=1;whiteSpace=wrap;" parent="QZHZEhRroXH8wzS-z7nh-5" vertex="1">
          <mxGeometry x="60" width="120" height="30" as="geometry">
            <mxRectangle width="120" height="30" as="alternateBounds" />
          </mxGeometry>
        </mxCell>
        <mxCell id="IzAvOUgwbSu5JqP0lJlk-2" style="rounded=0;orthogonalLoop=1;jettySize=auto;html=1;entryX=1;entryY=0.25;entryDx=0;entryDy=0;endArrow=none;endFill=0;" parent="1" source="IzAvOUgwbSu5JqP0lJlk-1" target="qdoZ0_azvyJZ9i20PAHD-21" edge="1">
          <mxGeometry relative="1" as="geometry" />
        </mxCell>
        <mxCell id="IzAvOUgwbSu5JqP0lJlk-4" value="M" style="edgeLabel;html=1;align=center;verticalAlign=middle;resizable=0;points=[];" parent="IzAvOUgwbSu5JqP0lJlk-2" vertex="1" connectable="0">
          <mxGeometry x="-0.0915" relative="1" as="geometry">
            <mxPoint x="1" as="offset" />
          </mxGeometry>
        </mxCell>
        <mxCell id="IzAvOUgwbSu5JqP0lJlk-3" style="rounded=0;orthogonalLoop=1;jettySize=auto;html=1;exitX=1;exitY=0.5;exitDx=0;exitDy=0;endArrow=none;endFill=0;" parent="1" source="IzAvOUgwbSu5JqP0lJlk-1" target="qdoZ0_azvyJZ9i20PAHD-14" edge="1">
          <mxGeometry relative="1" as="geometry" />
        </mxCell>
        <mxCell id="IzAvOUgwbSu5JqP0lJlk-5" value="1" style="edgeLabel;html=1;align=center;verticalAlign=middle;resizable=0;points=[];" parent="IzAvOUgwbSu5JqP0lJlk-3" vertex="1" connectable="0">
          <mxGeometry x="-0.199" y="1" relative="1" as="geometry">
            <mxPoint as="offset" />
          </mxGeometry>
        </mxCell>
        <mxCell id="IzAvOUgwbSu5JqP0lJlk-1" value="Relationship" style="shape=rhombus;perimeter=rhombusPerimeter;whiteSpace=wrap;html=1;align=center;" parent="1" vertex="1">
          <mxGeometry x="310" y="300" width="120" height="60" as="geometry" />
        </mxCell>
        <mxCell id="IzAvOUgwbSu5JqP0lJlk-6" value="Relationship" style="shape=rhombus;perimeter=rhombusPerimeter;whiteSpace=wrap;html=1;align=center;" parent="1" vertex="1">
          <mxGeometry x="766" y="800" width="120" height="60" as="geometry" />
        </mxCell>
        <mxCell id="IzAvOUgwbSu5JqP0lJlk-10" style="edgeStyle=orthogonalEdgeStyle;rounded=0;orthogonalLoop=1;jettySize=auto;html=1;entryX=0.63;entryY=1.025;entryDx=0;entryDy=0;entryPerimeter=0;exitX=0.5;exitY=0;exitDx=0;exitDy=0;endArrow=none;endFill=0;" parent="1" source="IzAvOUgwbSu5JqP0lJlk-6" target="qdoZ0_azvyJZ9i20PAHD-14" edge="1">
          <mxGeometry relative="1" as="geometry" />
        </mxCell>
        <mxCell id="IzAvOUgwbSu5JqP0lJlk-11" value="M" style="edgeLabel;html=1;align=center;verticalAlign=middle;resizable=0;points=[];" parent="IzAvOUgwbSu5JqP0lJlk-10" vertex="1" connectable="0">
          <mxGeometry x="-0.1072" y="3" relative="1" as="geometry">
            <mxPoint x="-1" as="offset" />
          </mxGeometry>
        </mxCell>
        <mxCell id="IzAvOUgwbSu5JqP0lJlk-13" value="Intake_Instructor" style="shape=table;startSize=30;container=1;collapsible=1;childLayout=tableLayout;fixedRows=1;rowLines=0;fontStyle=1;align=center;resizeLast=1;html=1;whiteSpace=wrap;" parent="1" vertex="1">
          <mxGeometry x="1850" y="1055" width="180" height="90" as="geometry" />
        </mxCell>
        <mxCell id="IzAvOUgwbSu5JqP0lJlk-14" value="" style="shape=tableRow;horizontal=0;startSize=0;swimlaneHead=0;swimlaneBody=0;fillColor=none;collapsible=0;dropTarget=0;points=[[0,0.5],[1,0.5]];portConstraint=eastwest;top=0;left=0;right=0;bottom=0;html=1;" parent="IzAvOUgwbSu5JqP0lJlk-13" vertex="1">
          <mxGeometry y="30" width="180" height="30" as="geometry" />
        </mxCell>
        <mxCell id="IzAvOUgwbSu5JqP0lJlk-15" value="PK,FK1" style="shape=partialRectangle;connectable=0;fillColor=none;top=0;left=0;bottom=0;right=0;fontStyle=1;overflow=hidden;html=1;whiteSpace=wrap;" parent="IzAvOUgwbSu5JqP0lJlk-14" vertex="1">
          <mxGeometry width="60" height="30" as="geometry">
            <mxRectangle width="60" height="30" as="alternateBounds" />
          </mxGeometry>
        </mxCell>
        <mxCell id="IzAvOUgwbSu5JqP0lJlk-16" value="IntakeID" style="shape=partialRectangle;connectable=0;fillColor=none;top=0;left=0;bottom=0;right=0;align=left;spacingLeft=6;fontStyle=5;overflow=hidden;html=1;whiteSpace=wrap;" parent="IzAvOUgwbSu5JqP0lJlk-14" vertex="1">
          <mxGeometry x="60" width="120" height="30" as="geometry">
            <mxRectangle width="120" height="30" as="alternateBounds" />
          </mxGeometry>
        </mxCell>
        <mxCell id="IzAvOUgwbSu5JqP0lJlk-17" value="" style="shape=tableRow;horizontal=0;startSize=0;swimlaneHead=0;swimlaneBody=0;fillColor=none;collapsible=0;dropTarget=0;points=[[0,0.5],[1,0.5]];portConstraint=eastwest;top=0;left=0;right=0;bottom=1;html=1;" parent="IzAvOUgwbSu5JqP0lJlk-13" vertex="1">
          <mxGeometry y="60" width="180" height="30" as="geometry" />
        </mxCell>
        <mxCell id="IzAvOUgwbSu5JqP0lJlk-18" value="PK,FK2" style="shape=partialRectangle;connectable=0;fillColor=none;top=0;left=0;bottom=0;right=0;fontStyle=1;overflow=hidden;html=1;whiteSpace=wrap;" parent="IzAvOUgwbSu5JqP0lJlk-17" vertex="1">
          <mxGeometry width="60" height="30" as="geometry">
            <mxRectangle width="60" height="30" as="alternateBounds" />
          </mxGeometry>
        </mxCell>
        <mxCell id="IzAvOUgwbSu5JqP0lJlk-19" value="InstructorID" style="shape=partialRectangle;connectable=0;fillColor=none;top=0;left=0;bottom=0;right=0;align=left;spacingLeft=6;fontStyle=5;overflow=hidden;html=1;whiteSpace=wrap;" parent="IzAvOUgwbSu5JqP0lJlk-17" vertex="1">
          <mxGeometry x="60" width="120" height="30" as="geometry">
            <mxRectangle width="120" height="30" as="alternateBounds" />
          </mxGeometry>
        </mxCell>
        <mxCell id="oir1oh8asQr06hZNyGvz-2" style="rounded=0;orthogonalLoop=1;jettySize=auto;html=1;endArrow=none;endFill=0;" parent="1" source="oir1oh8asQr06hZNyGvz-1" target="qdoZ0_azvyJZ9i20PAHD-95" edge="1">
          <mxGeometry relative="1" as="geometry" />
        </mxCell>
        <mxCell id="oir1oh8asQr06hZNyGvz-1" value="degree" style="ellipse;whiteSpace=wrap;html=1;align=center;" parent="1" vertex="1">
          <mxGeometry x="-171" y="300" width="100" height="40" as="geometry" />
        </mxCell>
        <mxCell id="oir1oh8asQr06hZNyGvz-4" style="rounded=0;orthogonalLoop=1;jettySize=auto;html=1;entryX=0;entryY=0;entryDx=0;entryDy=0;endArrow=none;endFill=0;" parent="1" source="oir1oh8asQr06hZNyGvz-3" target="qdoZ0_azvyJZ9i20PAHD-95" edge="1">
          <mxGeometry relative="1" as="geometry" />
        </mxCell>
        <mxCell id="oir1oh8asQr06hZNyGvz-3" value="Status" style="ellipse;whiteSpace=wrap;html=1;align=center;" parent="1" vertex="1">
          <mxGeometry x="-232" y="340" width="100" height="40" as="geometry" />
        </mxCell>
      </root>
    </mxGraphModel>
  </diagram>
</mxfile>
